{
.appVersion = "3058";
.formatVersion = 3;
customParameters = (
{
name = panose;
value = (
0,
0,
0,
0,
0,
0,
0,
0,
0,
0
);
},
{
name = unicodeRanges;
value = (
0,
1
);
},
{
name = codePageRanges;
value = (
"1252"
);
},
{
name = blueScale;
value = 0;
},
{
name = glyphOrder;
value = (
.notdef,
space,
A,
B,
C,
D,
E,
F,
G,
H,
I,
J,
K,
L,
M,
N,
O,
P,
Q,
R,
S,
T,
U,
V,
W,
X,
Y,
Z,
a,
b,
c,
d,
e,
f,
g,
h,
i,
j,
k,
l,
m,
n,
o,
p,
q,
r,
s,
t,
u,
v,
w,
x,
y,
z,
zero,
one,
two,
three,
four,
five,
six,
seven,
eight,
nine,
period,
comma,
hyphen
);
}
);
date = "2021-05-28 13:18:11 +0000";
familyName = Slarde;
fontMaster = (
{
customParameters = (
{
name = typoAscender;
value = 800;
},
{
name = typoDescender;
value = -200;
},
{
name = typoLineGap;
value = 200;
},
{
name = winAscent;
value = 1000;
},
{
name = winDescent;
value = 200;
},
{
name = hheaAscender;
value = 1000;
},
{
name = hheaDescender;
value = -200;
},
{
name = strikeoutPosition;
value = 250;
},
{
name = strikeoutSize;
value = 50;
},
{
name = underlinePosition;
value = -125;
}
);
id = m01;
metricValues = (
{
over = 16;
pos = 800;
},
{
over = 16;
pos = 700;
},
{
over = 16;
pos = 500;
},
{
over = -16;
},
{
over = -16;
pos = -200;
},
{
over = -16;
}
);
name = Regular;
}
);
glyphs = (
{
glyphname = .notdef;
layers = (
{
hints = (
{
horizontal = 1;
place = (-200, 69);
place = (-200, 69);
type = Stem;
},
{
horizontal = 1;
place = (-98, 47);
place = (-98, 47);
type = Stem;
},
{
horizontal = 1;
place = (-18, 23);
place = (-18, 23);
type = Stem;
},
{
horizontal = 1;
place = (38, 47);
place = (38, 47);
type = Stem;
},
{
horizontal = 1;
place = (118, 60);
place = (118, 60);
type = Stem;
},
{
horizontal = 1;
place = (211, 24);
place = (211, 24);
type = Stem;
},
{
horizontal = 1;
place = (291, 22);
place = (291, 22);
type = Stem;
},
{
horizontal = 1;
place = (347, 23);
place = (347, 23);
type = Stem;
},
{
horizontal = 1;
place = (403, 37);
place = (403, 37);
type = Stem;
},
{
horizontal = 1;
place = (473, 27);
place = (473, 27);
type = Stem;
},
{
horizontal = 1;
place = (534, 36);
place = (534, 36);
type = Stem;
},
{
horizontal = 1;
place = (604, 26);
place = (604, 26);
type = Stem;
},
{
horizontal = 1;
place = (663, 37);
place = (663, 37);
type = Stem;
},
{
horizontal = 1;
place = (733, 67);
place = (733, 67);
type = Stem;
},
{
place = (93, 74);
place = (93, 74);
type = Stem;
},
{
place = (200, 33);
place = (200, 33);
type = Stem;
},
{
place = (267, 33);
place = (267, 33);
type = Stem;
},
{
place = (333, 77);
place = (333, 77);
type = Stem;
},
{
place = (93, 140);
place = (93, 140);
type = Stem;
},
{
place = (267, 143);
place = (267, 143);
type = Stem;
},
{
horizontal = 1;
place = (413, 27);
place = (413, 27);
type = Stem;
},
{
place = (93, 75);
place = (93, 75);
type = Stem;
},
{
place = (200, 210);
place = (200, 210);
type = Stem;
},
{
place = (93, 207);
place = (93, 207);
type = Stem;
}
);
layerId = m01;
shapes = (
{
closed = 1;
nodes = (
(410,800,l),
(93,800,l),
(93,-200,l),
(410,-200,l)
);
},
{
closed = 1;
nodes = (
(167,-131,l),
(167,-98,l),
(237,-51,l),
(167,-51,l),
(167,-18,l),
(333,-18,l),
(333,-51,l),
(301,-51,l),
(231,-98,l),
(333,-98,l),
(333,-131,l)
);
},
{
closed = 1;
nodes = (
(167,5,l),
(167,118,l),
(333,118,l),
(333,5,l)
);
},
{
closed = 1;
nodes = (
(167,178,l),
(167,291,l),
(200,291,l),
(200,211,l),
(300,211,l),
(300,258,l),
(267,258,l),
(267,235,l),
(233,235,l),
(233,291,l),
(333,291,l),
(333,178,l)
);
},
{
closed = 1;
nodes = (
(167,313,l),
(167,347,l),
(300,347,l),
(300,413,l),
(333,413,l),
(333,313,l)
);
},
{
closed = 1;
nodes = (
(167,370,l),
(167,403,l),
(233,403,l),
(233,440,l),
(167,440,l),
(167,473,l),
(333,473,l),
(333,440,l),
(267,440,l),
(267,370,l)
);
},
{
closed = 1;
nodes = (
(167,500,l),
(167,604,l),
(267,604,l),
(267,534,l),
(333,534,l),
(333,500,l)
);
},
{
closed = 1;
nodes = (
(167,630,l),
(167,663,l),
(233,663,l),
(233,700,l),
(168,700,l),
(168,733,l),
(333,733,l),
(333,700,l),
(267,700,l),
(267,663,l),
(333,663,l),
(333,630,l)
);
},
{
closed = 1;
nodes = (
(200,38,l),
(300,38,l),
(300,85,l),
(200,85,l)
);
},
{
closed = 1;
nodes = (
(200,534,l),
(233,534,l),
(233,570,l),
(200,570,l)
);
}
);
width = 500;
}
);
note = .notdef;
},
{
glyphname = A;
layers = (
{
hints = (
{
horizontal = 1;
place = (-28, 19);
place = (-28, 19);
type = Stem;
},
{
horizontal = 1;
place = (111, 19);
place = (111, 19);
type = Stem;
},
{
horizontal = 1;
place = (752, 18);
place = (752, 18);
type = Stem;
},
{
place = (0, 18);
place = (0, 18);
type = Stem;
},
{
place = (171, 19);
place = (171, 19);
type = Stem;
},
{
place = (421, 19);
place = (421, 19);
type = Stem;
},
{
place = (974, 18);
place = (974, 18);
type = Stem;
},
{
place = (971, 19);
place = (971, 19);
type = Stem;
},
{
horizontal = 1;
place = (612, 18);
place = (612, 18);
type = Stem;
}
);
layerId = m01;
shapes = (
{
closed = 1;
nodes = (
(306,-3,ls),
(255,-12,o),
(209,-11,o),
(168,0,cs),
(159,3,o),
(150,6,o),
(141,10,cs),
(78,37,o),
(37,93,o),
(22,172,cs),
(13,218,o),
(19,270,o),
(40,324,cs),
(58,371,o),
(88,420,o),
(126,466,cs),
(160,507,o),
(201,545,o),
(241,572,cs),
(257,583,o),
(273,592,o),
(287,598,c),
(279,589,o),
(272,580,o),
(266,571,cs),
(196,468,o),
(140,323,o),
(190,223,cs),
(224,154,o),
(303,117,o),
(423,111,cs),
(471,109,o),
(516,111,o),
(558,115,c),
(542,104,o),
(527,94,o),
(511,84,cs),
(445,42,o),
(380,14,o),
(319,0,cs)
);
},
{
closed = 1;
nodes = (
(18,90,o),
(58,32,o),
(118,0,cs),
(123,-2,o),
(128,-5,o),
(133,-7,cs),
(183,-29,o),
(243,-33,o),
(309,-21,cs),
(334,-16,o),
(359,-9,o),
(385,0,cs),
(429,16,o),
(475,39,o),
(521,68,cs),
(546,84,o),
(572,102,o),
(597,120,c),
(709,137,o),
(794,174,o),
(853,208,cs),
(906,238,o),
(951,273,o),
(988,313,cs),
(1000,325,o),
(1011,338,o),
(1021,351,c),
(1013,322,o),
(1004,287,o),
(996,251,cs),
(968,124,o),
(966,40,o),
(991,0,c),
(991,-1,o),
(992,-2,o),
(993,-4,cs),
(1004,-19,o),
(1019,-27,o),
(1037,-28,cs),
(1045,-28,ls),
(1082,-28,o),
(1111,-18,o),
(1131,0,cs),
(1134,3,o),
(1137,5,o),
(1139,8,cs),
(1163,48,o),
(1151,131,o),
(1161,150,c),
(1143,150,l),
(1133,131,o),
(1143,53,o),
(1125,20,c),
(1118,12,o),
(1109,5,o),
(1097,0,cs),
(1082,-7,o),
(1062,-10,o),
(1038,-9,cs),
(1029,-9,o),
(1021,-6,o),
(1014,0,cs),
(1012,2,o),
(1010,4,o),
(1008,7,cs),
(992,30,o),
(980,91,o),
(1014,246,cs),
(1034,341,o),
(1063,426,o),
(1063,427,c),
(1046,433,l),
(1017,358,o),
(942,280,o),
(844,224,cs),
(793,195,o),
(722,163,o),
(631,145,c),
(702,199,o),
(770,259,o),
(826,317,cs),
(899,394,o),
(986,504,o),
(990,598,cs),
(992,644,o),
(974,681,o),
(937,709,cs),
(863,765,o),
(751,783,o),
(623,762,cs),
(550,749,o),
(475,724,o),
(411,690,cs),
(375,671,o),
(344,650,o),
(318,628,c),
(293,623,o),
(263,609,o),
(231,587,cs),
(189,559,o),
(147,520,o),
(111,477,cs),
(72,430,o),
(42,380,o),
(23,330,cs),
(1,273,o),
(-6,218,o),
(4,168,cs)
);
},
{
closed = 1;
nodes = (
(217,449,o),
(245,508,o),
(281,561,cs),
(293,578,o),
(308,595,o),
(326,611,c),
(331,612,o),
(335,612,o),
(339,612,cs),
(361,612,o),
(378,606,o),
(391,592,cs),
(428,553,o),
(423,467,o),
(421,425,cs),
(421,413,l),
(439,412,l),
(439,415,o),
(439,420,o),
(440,424,c),
(442,472,o),
(447,560,o),
(404,605,cs),
(390,620,o),
(372,628,o),
(350,630,c),
(420,683,o),
(522,726,o),
(626,743,cs),
(749,764,o),
(856,747,o),
(925,694,cs),
(942,682,o),
(954,667,o),
(962,651,cs),
(969,636,o),
(972,618,o),
(971,599,cs),
(969,529,o),
(914,436,o),
(813,330,cs),
(750,264,o),
(670,196,o),
(590,138,c),
(540,130,o),
(485,127,o),
(424,130,cs),
(311,135,o),
(238,169,o),
(207,231,cs),
(185,274,o),
(184,329,o),
(202,395,cs)
);
}
);
width = 1140;
}
);
note = A;
unicode = 65;
},
{
glyphname = B;
layers = (
{
hints = (
{
horizontal = 1;
place = (-30, 18);
place = (-30, 18);
type = Stem;
},
{
horizontal = 1;
place = (187, 18);
place = (187, 18);
type = Stem;
},
{
horizontal = 1;
place = (329, 19);
place = (329, 19);
type = Stem;
},
{
horizontal = 1;
place = (757, 18);
place = (757, 18);
type = Stem;
},
{
place = (85, 19);
place = (85, 19);
type = Stem;
},
{
place = (319, 14);
place = (319, 14);
type = Stem;
},
{
place = (528, 19);
place = (528, 19);
type = Stem;
},
{
place = (529, 18);
place = (529, 18);
type = Stem;
},
{
horizontal = 1;
place = (802, -20);
target = down;
type = TopGhost;
}
);
layerId = m01;
shapes = (
{
closed = 1;
nodes = (
(95,11,o),
(47,28,o),
(8,47,c),
(0,30,l),
(22,19,o),
(47,9,o),
(74,0,cs),
(129,-18,o),
(190,-30,o),
(249,-30,cs),
(291,-30,o),
(333,-24,o),
(371,-9,cs),
(393,0,ls),
(439,22,o),
(477,53,o),
(504,91,cs),
(532,130,o),
(547,175,o),
(547,219,cs),
(547,261,o),
(533,293,o),
(506,315,cs),
(477,338,o),
(434,349,o),
(380,348,cs),
(372,348,o),
(364,348,o),
(357,347,c),
(383,363,o),
(418,387,o),
(450,420,cs),
(481,451,o),
(505,484,o),
(521,519,cs),
(541,563,o),
(550,609,o),
(547,657,cs),
(545,689,o),
(538,715,o),
(527,734,cs),
(516,753,o),
(500,765,o),
(481,771,cs),
(435,785,o),
(377,761,o),
(333,736,c),
(337,768,o),
(338,792,o),
(337,802,c),
(319,801,l),
(320,790,o),
(318,761,o),
(313,724,c),
(265,692,o),
(217,649,o),
(187,611,cs),
(150,562,o),
(118,488,o),
(99,408,cs),
(82,331,o),
(80,262,o),
(95,224,cs),
(100,209,o),
(111,191,o),
(131,187,cs),
(151,183,o),
(170,187,o),
(188,199,cs),
(202,209,o),
(216,224,o),
(229,243,cs),
(255,282,o),
(269,329,o),
(273,342,cs),
(283,376,o),
(316,586,o),
(331,713,c),
(331,713,o),
(332,713,o),
(332,714,c),
(391,750,o),
(441,764,o),
(475,753,cs),
(508,743,o),
(525,711,o),
(528,656,cs),
(533,573,o),
(502,498,o),
(437,433,cs),
(424,420,o),
(386,381,o),
(310,342,cs),
(303,339,o),
(301,338,o),
(300,334,cs),
(295,318,l),
(311,322,ls),
(312,322,o),
(433,349,o),
(494,301,cs),
(517,283,o),
(529,255,o),
(529,219,cs),
(529,179,o),
(515,137,o),
(489,101,cs),
(460,61,o),
(416,28,o),
(364,8,cs),
(341,0,ls),
(279,-17,o),
(210,-14,o),
(144,0,cs)
);
},
{
closed = 1;
nodes = (
(99,265,o),
(101,332,o),
(118,404,cs),
(135,482,o),
(166,553,o),
(202,600,cs),
(227,633,o),
(268,670,o),
(311,699,c),
(295,574,o),
(265,378,o),
(255,347,cs),
(252,334,o),
(238,290,o),
(214,254,cs),
(189,216,o),
(162,200,o),
(135,205,cs),
(125,207,o),
(118,216,o),
(112,230,cs)
);
}
);
width = 527;
}
);
note = B;
unicode = 66;
},
{
glyphname = C;
layers = (
{
hints = (
{
horizontal = 1;
place = (-31, 19);
place = (-31, 19);
type = Stem;
},
{
horizontal = 1;
place = (821, 19);
place = (821, 19);
type = Stem;
},
{
place = (2, 19);
place = (2, 19);
type = Stem;
},
{
place = (500, 18);
place = (500, 18);
type = Stem;
}
);
layerId = m01;
shapes = (
{
closed = 1;
nodes = (
(27,91,o),
(14,146,o),
(21,214,cs),
(27,275,o),
(48,344,o),
(84,420,cs),
(130,517,o),
(199,619,o),
(272,699,cs),
(343,775,o),
(408,821,o),
(448,821,cs),
(473,821,o),
(489,814,o),
(496,800,cs),
(507,777,o),
(496,732,o),
(466,674,cs),
(441,626,o),
(408,580,o),
(393,562,c),
(407,550,l),
(423,569,o),
(456,616,o),
(482,665,cs),
(516,731,o),
(526,779,o),
(512,808,cs),
(502,829,o),
(481,840,o),
(448,840,cs),
(447,840,ls),
(424,840,o),
(395,828,o),
(361,804,cs),
(329,782,o),
(294,750,o),
(259,711,cs),
(184,630,o),
(114,527,o),
(67,428,cs),
(30,350,o),
(8,279,o),
(2,216,cs),
(-5,143,o),
(10,84,o),
(45,39,cs),
(58,24,o),
(73,11,o),
(90,0,cs),
(121,-19,o),
(159,-29,o),
(204,-31,cs),
(215,-31,ls),
(264,-31,o),
(322,-24,o),
(387,-3,cs),
(397,0,ls),
(526,32,o),
(613,89,o),
(628,150,c),
(607,150,l),
(598,109,o),
(516,52,o),
(391,18,c),
(365,9,o),
(340,5,o),
(317,0,cs),
(276,-9,o),
(238,-13,o),
(205,-12,cs),
(178,-11,o),
(154,-7,o),
(133,0,cs),
(103,11,o),
(79,28,o),
(60,51,cs)
);
}
);
width = 607;
}
);
note = C;
unicode = 67;
},
{
glyphname = D;
layers = (
{
hints = (
{
horizontal = 1;
place = (-27, 19);
place = (-27, 19);
type = Stem;
},
{
horizontal = 1;
place = (802, -20);
target = down;
type = TopGhost;
},
{
place = (357, 18);
place = (357, 18);
type = Stem;
},
{
place = (777, 18);
place = (777, 18);
type = Stem;
},
{
horizontal = 1;
place = (777, 18);
place = (777, 18);
type = Stem;
},
{
place = (760.5, 18);
place = (760.5, 18);
type = Stem;
}
);
layerId = m01;
shapes = (
{
closed = 1;
nodes = (
(160,-6,o),
(161,-3,o),
(163,0,cs),
(191,57,o),
(273,220,o),
(365,382,cs),
(432,498,o),
(490,591,o),
(538,657,cs),
(566,696,o),
(592,726,o),
(613,746,cs),
(641,772,o),
(657,777,o),
(665,777,cs),
(695,776,o),
(719,762,o),
(737,736,cs),
(759,705,o),
(773,657,o),
(777,599,cs),
(780,549,o),
(774,495,o),
(762,456,cs),
(759,447,ls),
(751,420,o),
(738,376,o),
(715,326,cs),
(688,267,o),
(655,214,o),
(616,170,cs),
(534,77,o),
(429,21,o),
(301,0,cs),
(256,-7,o),
(209,-10,o),
(159,-8,c)
);
},
{
closed = 1;
nodes = (
(0,79,l),
(23,39,o),
(49,15,o),
(71,0,cs),
(79,-5,o),
(87,-10,o),
(94,-13,cs),
(121,-25,o),
(141,-26,o),
(144,-26,cs),
(159,-27,o),
(173,-27,o),
(187,-27,cs),
(258,-27,o),
(324,-18,o),
(384,0,cs),
(404,6,o),
(423,13,o),
(442,21,cs),
(514,52,o),
(577,98,o),
(630,157,cs),
(670,203,o),
(704,257,o),
(732,319,cs),
(755,369,o),
(769,414,o),
(777,441,cs),
(780,451,ls),
(793,492,o),
(798,548,o),
(795,600,cs),
(791,678,o),
(769,723,o),
(752,747,cs),
(730,778,o),
(701,794,o),
(666,795,cs),
(648,796,o),
(627,784,o),
(600,759,cs),
(578,738,o),
(552,708,o),
(523,668,cs),
(474,601,o),
(416,508,o),
(349,391,cs),
(281,271,o),
(218,150,o),
(178,72,c),
(200,150,o),
(232,266,o),
(264,383,cs),
(375,788,o),
(375,797,o),
(375,802,c),
(357,802,l),
(354,779,o),
(203,229,o),
(139,0,c),
(138,-2,o),
(138,-4,o),
(137,-7,c),
(131,-6,o),
(122,-4,o),
(111,0,cs),
(101,4,ls),
(59,24,o),
(32,61,o),
(16,88,c)
);
}
);
width = 775;
}
);
note = D;
unicode = 68;
},
{
glyphname = E;
layers = (
{
hints = (
{
horizontal = 1;
place = (-41, 18);
place = (-41, 18);
type = Stem;
},
{
horizontal = 1;
place = (403, 18);
place = (403, 18);
type = Stem;
},
{
horizontal = 1;
place = (514, 19);
place = (514, 19);
type = Stem;
},
{
horizontal = 1;
place = (783, 19);
place = (783, 19);
type = Stem;
},
{
place = (0, 18);
place = (0, 18);
type = Stem;
},
{
place = (129, 19);
place = (129, 19);
type = Stem;
},
{
place = (203, 17);
place = (203, 17);
type = Stem;
},
{
place = (331, 18);
place = (331, 18);
type = Stem;
},
{
place = (599, 18);
place = (599, 18);
type = Stem;
}
);
layerId = m01;
shapes = (
{
closed = 1;
nodes = (
(305,743,o),
(344,764,o),
(384,774,cs),
(427,786,o),
(468,787,o),
(505,775,cs),
(539,766,o),
(565,749,o),
(581,726,cs),
(596,706,o),
(602,682,o),
(599,658,cs),
(594,626,o),
(575,596,o),
(545,574,cs),
(510,548,o),
(462,534,o),
(407,533,cs),
(402,533,ls),
(357,533,o),
(319,542,o),
(290,562,cs),
(264,579,o),
(245,602,o),
(233,632,cs),
(228,646,o),
(224,660,o),
(222,673,c),
(236,688,o),
(252,703,o),
(269,716,cs)
);
},
{
closed = 1;
nodes = (
(0,103,o),
(8,68,o),
(25,40,cs),
(34,25,o),
(46,11,o),
(59,0,cs),
(70,-8,o),
(81,-15,o),
(93,-21,cs),
(122,-34,o),
(156,-41,o),
(193,-41,cs),
(226,-41,o),
(261,-36,o),
(298,-26,cs),
(322,-19,o),
(347,-11,o),
(372,0,cs),
(416,21,ls),
(456,43,o),
(537,87,o),
(547,150,c),
(526,150,l),
(516,95,o),
(389,23,o),
(320,0,cs),
(311,-3,o),
(302,-6,o),
(293,-8,cs),
(218,-29,o),
(150,-27,o),
(101,-4,cs),
(98,-3,o),
(95,-1,o),
(93,0,cs),
(44,27,o),
(18,76,o),
(18,143,cs),
(18,194,o),
(31,240,o),
(58,281,cs),
(80,315,o),
(112,345,o),
(149,367,cs),
(161,374,o),
(174,380,o),
(186,386,c),
(214,355,o),
(248,333,o),
(278,326,cs),
(308,319,o),
(332,329,o),
(345,355,cs),
(355,375,o),
(348,401,o),
(328,412,cs),
(308,423,o),
(279,426,o),
(245,421,cs),
(227,419,o),
(210,414,o),
(192,408,c),
(165,440,o),
(149,476,o),
(148,507,cs),
(147,541,o),
(158,579,o),
(180,617,cs),
(188,630,o),
(197,643,o),
(207,655,c),
(209,645,o),
(212,635,o),
(216,625,cs),
(229,592,o),
(251,565,o),
(280,546,cs),
(314,524,o),
(357,513,o),
(408,514,cs),
(466,515,o),
(518,531,o),
(556,559,cs),
(590,584,o),
(612,618,o),
(617,655,cs),
(621,685,o),
(614,713,o),
(596,737,cs),
(578,763,o),
(548,782,o),
(511,793,cs),
(470,805,o),
(425,805,o),
(379,792,cs),
(337,781,o),
(295,759,o),
(257,730,cs),
(244,720,o),
(232,709,o),
(220,698,c),
(220,735,o),
(230,766,o),
(243,778,c),
(231,791,l),
(216,778,o),
(206,753,o),
(203,723,cs),
(201,708,o),
(201,694,o),
(203,679,c),
(188,663,o),
(175,645,o),
(164,626,cs),
(140,586,o),
(128,544,o),
(129,506,cs),
(130,470,o),
(148,432,o),
(174,400,c),
(162,395,o),
(151,390,o),
(140,383,cs),
(100,360,o),
(66,328,o),
(42,291,cs),
(14,247,o),
(0,198,o),
(0,143,cs)
);
},
{
closed = 1;
nodes = (
(219,397,o),
(234,401,o),
(247,403,cs),
(277,407,o),
(303,405,o),
(319,396,cs),
(330,390,o),
(334,375,o),
(328,363,cs),
(320,346,o),
(304,339,o),
(282,344,cs),
(258,349,o),
(230,368,o),
(205,393,c)
);
}
);
width = 526;
}
);
note = E;
unicode = 69;
},
{
glyphname = F;
layers = (
{
hints = (
{
horizontal = 1;
place = (-577, 19);
place = (-577, 19);
type = Stem;
},
{
horizontal = 1;
place = (-54, 18);
place = (-54, 18);
type = Stem;
},
{
horizontal = 1;
place = (0, 21);
target = up;
type = BottomGhost;
},
{
horizontal = 1;
place = (314, 19);
place = (314, 19);
type = Stem;
},
{
place = (-137, 18);
place = (-137, 18);
type = Stem;
},
{
place = (194, 18);
place = (194, 18);
type = Stem;
},
{
place = (849, 18);
place = (849, 18);
type = Stem;
},
{
horizontal = 1;
place = (-1, 21);
target = up;
type = BottomGhost;
},
{
horizontal = 1;
place = (910, 17);
place = (910, 17);
type = Stem;
},
{
place = (214, 18);
place = (214, 18);
type = Stem;
}
);
layerId = m01;
shapes = (
{
closed = 1;
nodes = (
(138,58,l),
(149,51,o),
(161,44,o),
(174,36,c),
(162,18,l),
(156,31,o),
(149,42,o),
(141,54,cs)
);
},
{
closed = 1;
nodes = (
(-124,-571,o),
(-112,-577,o),
(-96,-577,cs),
(-88,-577,l),
(-11,-569,o),
(54,-539,o),
(105,-487,cs),
(150,-442,o),
(183,-380,o),
(199,-309,cs),
(218,-229,o),
(216,-141,o),
(194,-62,c),
(193,-60,o),
(193,-58,o),
(192,-56,cs),
(186,-37,o),
(180,-18,o),
(172,-1,c),
(178,8,o),
(184,17,o),
(190,27,c),
(210,16,ls),
(328,-48,o),
(414,-68,o),
(465,-44,cs),
(503,-25,o),
(553,99,o),
(563,150,c),
(542,150,l),
(532,114,o),
(530,85,o),
(488,9,c),
(480,-3,o),
(465,-23,o),
(457,-27,cs),
(412,-49,o),
(330,-28,o),
(219,32,cs),
(213,36,o),
(206,39,o),
(200,43,c),
(218,69,o),
(352,300,o),
(373,331,c),
(428,310,o),
(485,308,o),
(539,325,cs),
(569,334,o),
(598,349,o),
(625,369,cs),
(653,390,o),
(680,418,o),
(703,451,cs),
(770,544,o),
(818,631,o),
(845,709,cs),
(872,790,o),
(870,842,o),
(864,871,cs),
(858,898,o),
(845,917,o),
(828,927,cs),
(824,929,o),
(818,929,o),
(812,927,cs),
(800,923,o),
(783,909,o),
(759,883,cs),
(738,861,o),
(712,831,o),
(681,792,cs),
(629,726,o),
(561,634,o),
(485,527,cs),
(444,468,o),
(403,409,o),
(366,354,c),
(327,372,o),
(293,399,o),
(268,433,cs),
(241,470,o),
(228,514,o),
(232,555,cs),
(237,602,o),
(265,647,o),
(313,682,cs),
(370,725,o),
(454,756,o),
(562,773,c),
(559,791,l),
(448,773,o),
(361,742,o),
(302,697,cs),
(250,658,o),
(219,610,o),
(214,556,cs),
(209,511,o),
(223,463,o),
(253,422,cs),
(279,387,o),
(315,358,o),
(355,339,c),
(335,308,o),
(202,78,o),
(184,52,c),
(143,76,o),
(106,101,o),
(84,116,c),
(76,123,o),
(68,128,o),
(60,134,c),
(49,118,l),
(50,118,o),
(58,112,o),
(73,102,c),
(104,76,o),
(130,42,o),
(151,0,c),
(134,-25,o),
(121,-46,o),
(112,-62,cs),
(103,-76,o),
(98,-86,o),
(96,-91,cs),
(91,-103,o),
(69,-137,o),
(42,-180,cs),
(4,-239,o),
(-48,-320,o),
(-86,-392,cs),
(-133,-480,o),
(-147,-534,o),
(-131,-560,cs)
);
},
{
closed = 1;
nodes = (
(-119,-544,o),
(-122,-529,o),
(-111,-495,cs),
(-104,-470,o),
(-90,-438,o),
(-69,-400,cs),
(-32,-330,o),
(20,-249,o),
(57,-190,cs),
(86,-144,o),
(107,-111,o),
(113,-98,cs),
(115,-93,o),
(122,-80,o),
(133,-62,cs),
(140,-50,o),
(149,-36,o),
(160,-20,c),
(165,-33,o),
(170,-47,o),
(174,-61,c),
(175,-62,l),
(198,-140,o),
(200,-226,o),
(181,-305,cs),
(165,-373,o),
(134,-431,o),
(92,-474,cs),
(44,-523,o),
(-17,-551,o),
(-89,-558,cs),
(-109,-560,o),
(-114,-553,o),
(-115,-550,c)
);
},
{
closed = 1;
nodes = (
(422,403,o),
(465,466,o),
(510,529,cs),
(587,638,o),
(655,730,o),
(708,795,cs),
(738,832,o),
(763,861,o),
(782,881,cs),
(808,907,o),
(818,910,o),
(820,910,c),
(832,903,o),
(841,888,o),
(846,867,cs),
(852,841,o),
(853,792,o),
(827,715,cs),
(801,639,o),
(754,553,o),
(688,462,cs),
(644,401,o),
(592,361,o),
(534,343,cs),
(485,328,o),
(433,329,o),
(383,347,c)
);
}
);
width = 542;
}
);
note = F;
unicode = 70;
},
{
glyphname = G;
layers = (
{
hints = (
{
horizontal = 1;
place = (-511, 21);
place = (-511, 21);
type = Stem;
},
{
horizontal = 1;
place = (-100, 19);
place = (-100, 19);
type = Stem;
},
{
horizontal = 1;
place = (-6, 21);
target = up;
type = BottomGhost;
},
{
horizontal = 1;
place = (778, 18);
place = (778, 18);
type = Stem;
},
{
place = (-103, 18);
place = (-103, 18);
type = Stem;
},
{
place = (165, 18);
place = (165, 18);
type = Stem;
},
{
place = (580, 19);
place = (580, 19);
type = Stem;
},
{
place = (633, 19);
place = (633, 19);
type = Stem;
},
{
horizontal = 1;
place = (-11, 12);
place = (-11, 12);
type = Stem;
},
{
horizontal = 1;
place = (-17, 18);
place = (-17, 18);
type = Stem;
}
);
layerId = m01;
shapes = (
{
closed = 1;
nodes = (
(332,-6,l),
(295,-83,o),
(264,-161,o),
(242,-213,cs),
(231,-241,o),
(222,-264,o),
(219,-268,cs),
(217,-272,o),
(214,-277,o),
(211,-284,cs),
(181,-341,o),
(91,-515,o),
(-42,-490,cs),
(-76,-484,o),
(-91,-458,o),
(-85,-412,cs),
(-78,-355,o),
(-39,-275,o),
(15,-209,cs),
(72,-138,o),
(133,-97,o),
(178,-100,c),
(179,-81,l),
(152,-80,o),
(121,-91,o),
(88,-113,cs),
(59,-133,o),
(29,-162,o),
(1,-197,cs),
(-26,-230,o),
(-50,-267,o),
(-69,-304,cs),
(-88,-343,o),
(-100,-379,o),
(-103,-410,cs),
(-110,-465,o),
(-90,-500,o),
(-45,-509,c),
(-35,-510,o),
(-26,-511,o),
(-16,-511,cs),
(114,-511,o),
(198,-348,o),
(227,-292,cs),
(230,-286,o),
(233,-281,o),
(235,-278,cs),
(238,-272,o),
(245,-255,o),
(259,-220,cs),
(281,-167,o),
(313,-89,o),
(350,-11,c),
(370,-16,o),
(392,-18,o),
(413,-17,cs),
(439,-15,o),
(462,-9,o),
(481,0,cs),
(509,13,o),
(530,32,o),
(545,48,cs),
(575,81,o),
(595,124,o),
(599,165,cs),
(601,188,o),
(597,210,o),
(589,226,cs),
(579,245,o),
(563,258,o),
(542,263,cs),
(517,269,o),
(490,254,o),
(459,216,cs),
(434,186,o),
(406,142,o),
(376,84,cs),
(364,61,o),
(351,36,o),
(340,11,c),
(330,14,o),
(321,18,o),
(313,23,c),
(282,38,o),
(255,62,o),
(233,92,cs),
(206,130,o),
(189,175,o),
(183,223,cs),
(177,276,o),
(184,330,o),
(206,383,cs),
(243,477,o),
(308,572,o),
(388,651,cs),
(461,723,o),
(536,770,o),
(589,778,cs),
(596,779,o),
(621,783,o),
(630,765,cs),
(638,748,o),
(632,715,o),
(613,674,cs),
(595,634,o),
(567,594,o),
(539,566,c),
(552,553,l),
(608,609,o),
(672,723,o),
(646,774,cs),
(634,798,o),
(606,799,o),
(586,796,cs),
(529,788,o),
(451,739,o),
(375,665,cs),
(294,584,o),
(227,486,o),
(188,389,cs),
(166,335,o),
(158,276,o),
(165,221,cs),
(171,170,o),
(189,121,o),
(218,81,cs),
(242,49,o),
(271,23,o),
(304,6,cs),
(308,4,o),
(313,2,o),
(317,0,cs)
);
},
{
closed = 1;
nodes = (
(369,30,o),
(381,53,o),
(392,76,cs),
(422,132,o),
(449,175,o),
(473,204,cs),
(499,235,o),
(521,249,o),
(537,245,cs),
(552,241,o),
(586,226,o),
(580,167,cs),
(577,130,o),
(558,90,o),
(531,60,cs),
(508,35,o),
(470,5,o),
(412,1,cs),
(394,0,o),
(375,2,o),
(358,6,c)
);
}
);
width = 600;
}
);
note = G;
unicode = 71;
},
{
glyphname = H;
layers = (
{
hints = (
{
horizontal = 1;
place = (-23, 23);
place = (-23, 23);
type = Stem;
},
{
horizontal = 1;
place = (237, 19.5);
place = (237, 19.5);
type = Stem;
},
{
horizontal = 1;
place = (811, -20);
target = down;
type = TopGhost;
},
{
place = (-21, 19);
place = (-21, 19);
type = Stem;
},
{
place = (375, 18);
place = (375, 18);
type = Stem;
},
{
horizontal = 1;
place = (-18, 18);
place = (-18, 18);
type = Stem;
}
);
layerId = m01;
shapes = (
{
closed = 1;
nodes = (
(396,54,o),
(404,76,o),
(409,93,cs),
(413,104,o),
(416,113,o),
(417,118,cs),
(420,142,o),
(588,545,o),
(700,811,c),
(684,819,l),
(684,819,o),
(666,785,o),
(622,719,cs),
(582,657,o),
(511,554,o),
(402,411,cs),
(362,358,o),
(319,320,o),
(271,295,cs),
(242,280,o),
(215,271,o),
(189,264,c),
(218,339,o),
(253,430,o),
(288,516,cs),
(322,600,o),
(351,668,o),
(375,716,cs),
(388,744,o),
(400,765,o),
(410,781,cs),
(423,802,o),
(429,805,o),
(430,806,c),
(424,823,l),
(407,817,o),
(374,777,o),
(270,523,cs),
(233,432,o),
(197,336,o),
(168,258,c),
(153,255,ls),
(114,246,o),
(81,238,o),
(53,218,cs),
(22,195,o),
(2,160,o),
(-10,106,cs),
(-19,69,o),
(-22,40,o),
(-21,20,cs),
(-20,12,o),
(-19,5,o),
(-16,0,c),
(-13,-9,o),
(-7,-15,o),
(1,-18,cs),
(16,-23,o),
(34,-13,o),
(51,0,cs),
(59,7,o),
(67,14,o),
(74,22,cs),
(98,47,o),
(120,79,o),
(129,101,cs),
(141,133,ls),
(150,159,o),
(164,197,o),
(182,243,c),
(251,260,o),
(333,289,o),
(417,400,cs),
(525,541,o),
(596,644,o),
(636,707,c),
(610,645,o),
(577,564,o),
(543,483,cs),
(401,142,o),
(399,126,o),
(398,121,cs),
(398,117,o),
(395,108,o),
(392,99,cs),
(381,69,o),
(367,26,o),
(375,0,cs),
(377,-7,o),
(381,-13,o),
(387,-17,cs),
(393,-21,o),
(400,-23,o),
(409,-23,cs),
(424,-23,o),
(443,-17,o),
(468,-5,cs),
(477,0,ls),
(518,22,o),
(611,96,o),
(621,150,c),
(600,150,l),
(590,105,o),
(500,32,o),
(460,12,cs),
(449,6,o),
(439,2,o),
(432,0,cs),
(411,-7,o),
(402,-4,o),
(398,-2,c),
(396,0,ls),
(390,7,o),
(391,23,o),
(393,35,cs)
);
},
{
closed = 1;
nodes = (
(6,0,l),
(2,2,o),
(-12,16,o),
(8,102,cs),
(19,151,o),
(37,183,o),
(64,203,cs),
(89,221,o),
(120,228,o),
(157,237,cs),
(158,237,o),
(159,237,o),
(160,238,c),
(145,197,o),
(132,163,o),
(123,139,cs),
(112,108,ls),
(103,88,o),
(83,58,o),
(61,35,cs),
(40,12,o),
(24,3,o),
(15,0,cs),
(11,-1,o),
(9,-1,o),
(7,0,c)
);
}
);
width = 600;
}
);
note = H;
unicode = 72;
},
{
glyphname = I;
layers = (
{
hints = (
{
horizontal = 1;
place = (-15, 19);
place = (-15, 19);
type = Stem;
},
{
horizontal = 1;
place = (48, 18);
place = (48, 18);
type = Stem;
},
{
horizontal = 1;
place = (709, 17);
place = (709, 17);
type = Stem;
},
{
horizontal = 1;
place = (806, 19);
place = (806, 19);
type = Stem;
},
{
place = (1, 19);
place = (1, 19);
type = Stem;
},
{
place = (79, 18);
place = (79, 18);
type = Stem;
},
{
place = (362, 11);
place = (362, 11);
type = Stem;
},
{
place = (659, 18);
place = (659, 18);
type = Stem;
},
{
horizontal = 1;
place = (713, 18);
place = (713, 18);
type = Stem;
},
{
place = (357, 21);
place = (357, 21);
type = Stem;
},
{
horizontal = 1;
place = (-17, 17.5);
place = (-17, 17.5);
type = Stem;
},
{
horizontal = 1;
place = (-2, 21);
target = up;
type = BottomGhost;
}
);
layerId = m01;
shapes = (
{
closed = 1;
nodes = (
(281,-16,o),
(318,-20,o),
(354,-15,cs),
(372,-12,o),
(388,-7,o),
(404,0,cs),
(417,5,o),
(429,12,o),
(440,21,cs),
(477,48,o),
(485,116,o),
(495,150,c),
(474,150,l),
(464,122,o),
(461,59,o),
(429,35,cs),
(407,19,o),
(380,8,o),
(352,4,cs),
(319,-1,o),
(284,2,o),
(250,15,cs),
(222,25,o),
(197,34,o),
(174,41,c),
(202,60,o),
(227,81,o),
(241,98,cs),
(254,113,o),
(269,156,o),
(287,231,cs),
(300,288,o),
(315,364,o),
(331,456,cs),
(354,583,o),
(372,706,o),
(378,749,c),
(402,732,o),
(441,714,o),
(501,713,cs),
(549,711,o),
(599,721,o),
(634,738,cs),
(663,752,o),
(679,770,o),
(677,788,cs),
(676,810,o),
(650,822,o),
(600,825,cs),
(557,828,o),
(501,822,o),
(453,812,cs),
(424,805,o),
(390,794,o),
(373,778,c),
(365,786,l),
(362,768,l),
(362,768,o),
(362,765,o),
(361,759,cs),
(359,753,o),
(347,743,o),
(315,736,cs),
(242,718,o),
(128,724,o),
(102,756,cs),
(98,761,o),
(94,769,o),
(101,783,c),
(85,792,l),
(74,770,o),
(80,754,o),
(88,745,cs),
(98,731,o),
(125,714,o),
(190,709,cs),
(233,705,o),
(283,709,o),
(319,718,cs),
(335,721,o),
(347,726,o),
(357,731,c),
(349,676,o),
(332,569,o),
(313,459,cs),
(297,368,o),
(282,292,o),
(269,235,cs),
(248,147,o),
(235,119,o),
(227,110,cs),
(211,91,o),
(183,69,o),
(151,49,c),
(137,53,o),
(124,57,o),
(112,59,cs),
(67,69,o),
(39,68,o),
(21,56,cs),
(8,47,o),
(1,32,o),
(1,12,cs),
(1,7,o),
(2,3,o),
(3,0,cs),
(6,-8,o),
(12,-14,o),
(20,-17,cs),
(24,-18,o),
(29,-19,o),
(35,-19,cs),
(54,-19,o),
(79,-10,o),
(100,0,cs),
(112,5,o),
(123,11,o),
(132,15,c),
(139,20,o),
(147,24,o),
(154,28,c),
(180,20,o),
(209,10,o),
(238,0,cs),
(240,-1,o),
(242,-2,o),
(244,-2,c)
);
},
{
closed = 1;
nodes = (
(20,26,o),
(24,35,o),
(31,41,c),
(38,45,o),
(48,48,o),
(61,48,cs),
(79,48,o),
(103,43,o),
(130,36,c),
(123,32,ls),
(101,20,o),
(81,10,o),
(64,5,cs),
(55,2,o),
(48,1,o),
(42,0,cs),
(36,-1,o),
(32,-1,o),
(29,0,cs),
(26,1,ls),
(23,2,o),
(20,4,o),
(20,12,cs)
);
},
{
closed = 1;
nodes = (
(397,774,o),
(419,785,o),
(457,793,cs),
(503,804,o),
(557,809,o),
(599,806,cs),
(639,804,o),
(658,795,o),
(659,787,cs),
(660,777,o),
(647,765,o),
(626,755,cs),
(594,739,o),
(546,730,o),
(502,731,cs),
(455,732,o),
(415,745,o),
(387,766,c)
);
}
);
width = 474;
}
);
note = I;
unicode = 73;
},
{
glyphname = J;
layers = (
{
hints = (
{
horizontal = 1;
place = (-396, 19);
place = (-396, 19);
type = Stem;
},
{
horizontal = 1;
place = (-16, 21);
target = up;
type = BottomGhost;
},
{
horizontal = 1;
place = (33, 18);
place = (33, 18);
type = Stem;
},
{
horizontal = 1;
place = (708, -20);
target = down;
type = TopGhost;
},
{
horizontal = 1;
place = (809, 18);
place = (809, 18);
type = Stem;
},
{
place = (-127, 19);
place = (-127, 19);
type = Stem;
},
{
place = (581, 19);
place = (581, 19);
type = Stem;
},
{
horizontal = 1;
place = (809, 15);
place = (809, 15);
type = Stem;
},
{
horizontal = 1;
place = (-19, 20);
place = (-19, 20);
type = Stem;
}
);
layerId = m01;
shapes = (
{
closed = 1;
nodes = (
(481,3,o),
(465,10,o),
(447,17,cs),
(426,26,o),
(403,35,o),
(375,42,c),
(434,156,o),
(495,278,o),
(521,341,cs),
(541,392,o),
(570,470,o),
(586,547,cs),
(607,646,o),
(604,719,o),
(577,766,cs),
(559,799,o),
(529,818,o),
(488,824,cs),
(433,832,o),
(387,826,o),
(346,805,cs),
(310,787,o),
(276,756,o),
(241,708,c),
(256,697,l),
(289,742,o),
(321,772,o),
(355,789,cs),
(392,808,o),
(435,813,o),
(485,806,cs),
(521,801,o),
(545,785,o),
(561,757,cs),
(586,714,o),
(588,645,o),
(568,551,cs),
(552,475,o),
(524,398,o),
(503,348,cs),
(479,287,o),
(417,162,o),
(357,46,c),
(343,49,o),
(328,51,o),
(311,51,cs),
(247,54,o),
(176,37,o),
(97,0,cs),
(84,-6,ls),
(4,-44,o),
(-57,-95,o),
(-92,-153,cs),
(-123,-202,o),
(-134,-255,o),
(-123,-302,cs),
(-110,-359,o),
(-66,-396,o),
(-12,-396,cs),
(53,-396,o),
(103,-378,o),
(147,-340,cs),
(187,-304,o),
(216,-255,o),
(245,-203,cs),
(260,-177,o),
(304,-94,o),
(354,0,cs),
(358,9,o),
(362,17,o),
(367,25,c),
(395,19,o),
(418,9,o),
(439,0,c),
(440,0,l),
(472,-13,o),
(500,-25,o),
(528,-16,cs),
(540,-13,o),
(551,-7,o),
(562,0,cs),
(580,14,o),
(595,35,o),
(606,61,cs),
(618,91,o),
(622,123,o),
(632,150,c),
(611,150,l),
(611,150,o),
(599,103,o),
(588,68,cs),
(574,32,o),
(552,10,o),
(523,1,c),
(522,1,o),
(521,1,o),
(520,0,c),
(512,-1,o),
(504,-1,o),
(496,0,cs)
);
},
{
closed = 1;
nodes = (
(-114,-256,o),
(-104,-208,o),
(-76,-162,cs),
(-43,-108,o),
(15,-59,o),
(92,-22,cs),
(110,-14,o),
(127,-6,o),
(144,0,cs),
(200,22,o),
(251,33,o),
(298,33,cs),
(310,33,ls),
(324,32,o),
(336,31,o),
(348,29,c),
(333,0,ls),
(287,-87,o),
(246,-164,o),
(229,-194,cs),
(201,-244,o),
(172,-292,o),
(134,-326,cs),
(95,-361,o),
(48,-377,o),
(-12,-377,cs),
(-35,-377,o),
(-56,-370,o),
(-72,-356,cs),
(-88,-341,o),
(-99,-322,o),
(-105,-298,cs)
);
}
);
width = 611;
}
);
note = J;
unicode = 74;
},
{
glyphname = K;
layers = (
{
hints = (
{
horizontal = 1;
place = (-1, 19);
place = (-1, 19);
type = Stem;
},
{
horizontal = 1;
place = (345, 18);
place = (345, 18);
type = Stem;
},
{
place = (0, 19);
place = (0, 19);
type = Stem;
},
{
place = (574, 19);
place = (574, 19);
type = Stem;
},
{
horizontal = 1;
place = (-11, 21);
target = up;
type = BottomGhost;
},
{
horizontal = 1;
place = (852, 20);
place = (852, 20);
type = Stem;
},
{
place = (496, 21);
place = (496, 21);
type = Stem;
}
);
layerId = m01;
shapes = (
{
closed = 1;
nodes = (
(80,-3,l),
(97,-11,l),
(102,0,ls),
(123,44,o),
(198,205,o),
(281,375,c),
(313,384,o),
(346,398,o),
(377,417,cs),
(408,436,o),
(438,459,o),
(465,486,cs),
(519,539,o),
(560,602,o),
(580,665,cs),
(592,703,o),
(596,740,o),
(593,773,cs),
(589,809,o),
(575,841,o),
(553,867,cs),
(550,871,o),
(546,872,o),
(541,872,cs),
(534,871,o),
(524,865,o),
(499,828,cs),
(484,805,o),
(464,771,o),
(440,728,cs),
(400,656,o),
(349,555,o),
(287,429,cs),
(280,416,o),
(274,404,o),
(268,391,c),
(199,373,o),
(144,364,o),
(105,363,cs),
(71,363,o),
(47,369,o),
(34,381,cs),
(15,397,o),
(17,427,o),
(22,459,c),
(3,461,l),
(-2,426,o),
(-4,390,o),
(21,367,cs),
(38,351,o),
(66,344,o),
(105,345,cs),
(143,346,o),
(193,353,o),
(257,369,c),
(171,191,o),
(94,26,o),
(82,0,c)
);
},
{
closed = 1;
nodes = (
(180,113,o),
(181,108,o),
(188,106,cs),
(202,102,o),
(247,116,o),
(252,118,cs),
(298,133,o),
(317,147,o),
(324,154,c),
(325,153,o),
(327,149,o),
(330,142,c),
(338,109,ls),
(348,65,o),
(360,16,o),
(390,4,cs),
(394,2,o),
(398,1,o),
(402,0,cs),
(407,-1,o),
(412,-1,o),
(417,-1,cs),
(422,-1,o),
(427,-1,o),
(432,0,cs),
(442,2,o),
(451,6,o),
(460,12,cs),
(491,32,o),
(507,104,o),
(517,150,c),
(496,150,l),
(489,113,o),
(469,39,o),
(450,27,cs),
(433,17,o),
(414,14,o),
(397,21,cs),
(375,30,o),
(364,78,o),
(356,113,cs),
(347,150,o),
(342,169,o),
(329,173,cs),
(325,174,o),
(318,174,o),
(311,167,cs),
(301,157,o),
(277,146,o),
(248,136,cs),
(232,131,o),
(219,127,o),
(209,126,c),
(215,132,o),
(222,140,o),
(231,150,cs),
(267,188,o),
(326,252,o),
(385,309,cs),
(456,375,o),
(508,413,o),
(541,420,c),
(537,438,l),
(501,430,o),
(447,392,o),
(372,322,cs),
(313,266,o),
(253,201,o),
(218,162,cs),
(202,145,o),
(189,131,o),
(185,128,cs),
(180,124,o),
(178,119,o),
(179,115,cs)
);
},
{
closed = 1;
nodes = (
(301,415,ls),
(362,540,o),
(413,640,o),
(453,713,cs),
(477,756,o),
(496,790,o),
(512,814,cs),
(529,840,o),
(538,849,o),
(541,852,c),
(560,829,o),
(571,802,o),
(574,771,cs),
(578,740,o),
(574,706,o),
(562,671,cs),
(543,611,o),
(504,550,o),
(452,499,cs),
(404,452,o),
(348,416,o),
(292,398,c)
);
}
);
width = 496;
}
);
note = K;
unicode = 75;
},
{
glyphname = L;
layers = (
{
hints = (
{
horizontal = 1;
place = (-17, 18);
place = (-17, 18);
type = Stem;
},
{
horizontal = 1;
place = (386, 17);
place = (386, 17);
type = Stem;
},
{
horizontal = 1;
place = (499, 19);
place = (499, 19);
type = Stem;
},
{
horizontal = 1;
place = (916, 18);
place = (916, 18);
type = Stem;
},
{
place = (1, 19);
place = (1, 19);
type = Stem;
},
{
place = (682, 19);
place = (682, 19);
type = Stem;
},
{
horizontal = 1;
place = (-40, 21);
place = (-40, 21);
type = Stem;
},
{
horizontal = 1;
place = (499, 21);
place = (499, 21);
type = Stem;
}
);
layerId = m01;
shapes = (
{
closed = 1;
nodes = (
(183,30,o),
(148,1,o),
(104,1,cs),
(76,2,o),
(55,16,o),
(40,43,cs),
(22,77,o),
(15,130,o),
(20,189,cs),
(24,242,o),
(38,294,o),
(56,322,cs),
(86,370,o),
(121,386,o),
(145,386,cs),
(148,386,o),
(151,386,o),
(154,385,cs),
(172,382,o),
(188,369,o),
(203,348,cs),
(220,322,o),
(234,284,o),
(245,234,cs),
(250,206,o),
(256,181,o),
(262,158,c),
(251,122,o),
(230,83,o),
(205,55,cs)
);
},
{
closed = 1;
nodes = (
(-6,104,o),
(12,56,o),
(24,34,cs),
(32,20,o),
(42,8,o),
(53,0,cs),
(67,-11,o),
(84,-17,o),
(103,-17,cs),
(106,-17,ls),
(128,-17,o),
(148,-11,o),
(167,0,cs),
(215,26,o),
(251,80,o),
(270,126,c),
(286,68,o),
(303,27,o),
(320,0,cs),
(331,-16,o),
(341,-27,o),
(353,-33,cs),
(361,-38,o),
(369,-40,o),
(378,-40,cs),
(385,-40,o),
(392,-39,o),
(399,-36,cs),
(409,-32,o),
(426,-23,o),
(444,0,cs),
(452,9,o),
(460,22,o),
(468,37,cs),
(485,69,o),
(492,101,o),
(502,150,c),
(481,150,l),
(471,108,o),
(468,77,o),
(452,45,cs),
(442,27,o),
(431,11,o),
(419,0,cs),
(410,-9,o),
(401,-15,o),
(392,-19,cs),
(381,-23,o),
(371,-22,o),
(362,-17,cs),
(355,-14,o),
(349,-8,o),
(343,0,cs),
(322,26,o),
(301,78,o),
(281,157,c),
(291,187,o),
(380,396,o),
(422,500,c),
(427,499,o),
(433,499,o),
(438,499,cs),
(519,501,o),
(597,559,o),
(631,615,cs),
(657,656,o),
(679,713,o),
(691,769,cs),
(709,851,o),
(698,890,o),
(691,906,cs),
(683,923,o),
(671,932,o),
(655,934,cs),
(640,936,o),
(615,929,o),
(563,842,cs),
(534,792,o),
(498,721,o),
(459,632,cs),
(442,595,o),
(426,557,o),
(411,520,c),
(396,522,o),
(383,526,o),
(370,533,cs),
(348,545,o),
(328,563,o),
(311,588,c),
(295,577,l),
(324,536,o),
(361,510,o),
(403,502,c),
(371,423,o),
(288,232,o),
(273,191,c),
(270,206,o),
(266,221,o),
(263,238,cs),
(252,290,o),
(237,330,o),
(218,358,cs),
(201,384,o),
(180,399,o),
(157,403,cs),
(136,407,o),
(113,401,o),
(91,387,cs),
(72,374,o),
(55,355,o),
(40,332,cs),
(21,301,o),
(6,247,o),
(1,190,cs)
);
},
{
closed = 1;
nodes = (
(430,518,l),
(445,553,o),
(460,589,o),
(476,625,cs),
(515,713,o),
(550,783,o),
(579,832,cs),
(627,912,o),
(648,916,o),
(653,916,cs),
(662,915,o),
(669,909,o),
(674,898,cs),
(685,874,o),
(685,829,o),
(673,773,cs),
(661,719,o),
(640,664,o),
(616,624,cs),
(599,597,o),
(572,571,o),
(541,552,cs),
(507,530,o),
(471,519,o),
(437,518,cs)
);
}
);
width = 481;
}
);
note = L;
unicode = 76;
},
{
glyphname = M;
layers = (
{
hints = (
{
horizontal = 1;
place = (-85, 19);
place = (-85, 19);
type = Stem;
},
{
horizontal = 1;
place = (0, 21);
target = up;
type = BottomGhost;
},
{
horizontal = 1;
place = (781, 18);
place = (781, 18);
type = Stem;
},
{
place = (231, 19);
place = (231, 19);
type = Stem;
},
{
place = (605, 13);
place = (605, 13);
type = Stem;
},
{
horizontal = 1;
place = (-16, 21);
target = up;
type = BottomGhost;
},
{
horizontal = 1;
place = (25, 18);
place = (25, 18);
type = Stem;
},
{
place = (232, 18);
place = (232, 18);
type = Stem;
}
);
layerId = m01;
shapes = (
{
closed = 1;
nodes = (
(-47,-58,o),
(-83,-69,o),
(-112,-66,cs),
(-140,-64,o),
(-161,-50,o),
(-174,-26,c),
(-190,-35,l),
(-174,-64,o),
(-148,-82,o),
(-114,-85,cs),
(-104,-85,ls),
(-72,-85,o),
(-37,-74,o),
(0,-52,cs),
(23,-38,o),
(45,-20,o),
(66,0,cs),
(82,16,o),
(98,34,o),
(112,53,cs),
(133,80,o),
(178,147,o),
(232,231,c),
(235,158,o),
(248,92,o),
(272,56,cs),
(284,37,o),
(299,27,o),
(316,25,cs),
(331,23,o),
(348,34,o),
(370,60,cs),
(388,81,o),
(408,113,o),
(432,153,cs),
(471,222,o),
(519,318,o),
(573,439,cs),
(625,554,o),
(674,670,o),
(707,751,c),
(690,675,o),
(668,569,o),
(649,461,cs),
(627,341,o),
(612,243,o),
(605,168,cs),
(600,123,o),
(598,86,o),
(599,59,cs),
(600,31,o),
(604,12,o),
(610,0,cs),
(611,-2,o),
(612,-4,o),
(614,-6,cs),
(620,-14,o),
(627,-16,o),
(632,-16,cs),
(638,-17,o),
(668,-22,o),
(698,-2,cs),
(699,-1,o),
(700,0,o),
(701,0,c),
(732,22,o),
(762,93,o),
(772,150,c),
(751,150,l),
(741,97,o),
(716,32,o),
(689,14,cs),
(662,-4,o),
(636,2,o),
(635,2,c),
(634,3,l),
(633,3,ls),
(632,3,o),
(631,3,o),
(628,5,c),
(621,14,o),
(611,47,o),
(623,166,cs),
(630,240,o),
(645,338,o),
(667,457,cs),
(704,660,o),
(749,856,o),
(750,858,c),
(732,863,l),
(731,861,o),
(649,652,o),
(557,446,cs),
(502,326,o),
(455,230,o),
(416,163,cs),
(393,123,o),
(373,92,o),
(356,72,cs),
(333,45,o),
(322,43,o),
(318,43,c),
(307,45,o),
(297,52,o),
(288,66,cs),
(266,99,o),
(252,166,o),
(250,249,cs),
(250,259,l),
(283,312,o),
(319,370,o),
(353,427,cs),
(408,518,o),
(450,594,o),
(479,653,cs),
(496,686,o),
(508,714,o),
(515,736,cs),
(524,761,o),
(526,778,o),
(522,788,cs),
(519,795,o),
(513,799,o),
(506,799,c),
(456,805,o),
(405,772,o),
(357,704,cs),
(317,647,o),
(282,567,o),
(257,480,cs),
(240,420,o),
(231,340,o),
(231,264,c),
(171,170,o),
(119,93,o),
(97,64,cs),
(79,40,o),
(60,19,o),
(39,0,cs),
(23,-14,o),
(7,-26,o),
(-10,-36,cs)
);
},
{
closed = 1;
nodes = (
(252,359,o),
(260,425,o),
(275,475,cs),
(299,560,o),
(334,638,o),
(372,693,cs),
(422,765,o),
(466,781,o),
(496,781,cs),
(504,781,l),
(505,779,o),
(512,763,o),
(467,669,cs),
(439,612,o),
(397,536,o),
(342,444,cs),
(312,393,o),
(280,342,o),
(250,294,c)
);
}
);
width = 751;
}
);
note = M;
unicode = 77;
},
{
glyphname = N;
layers = (
{
hints = (
{
horizontal = 1;
place = (-96, 19);
place = (-96, 19);
type = Stem;
},
{
horizontal = 1;
place = (-2, 21);
target = up;
type = BottomGhost;
},
{
horizontal = 1;
place = (796, 18);
place = (796, 18);
type = Stem;
},
{
place = (231, 27);
place = (231, 27);
type = Stem;
},
{
place = (371, 18);
place = (371, 18);
type = Stem;
},
{
place = (750, 18);
place = (750, 18);
type = Stem;
},
{
place = (341, 14);
place = (341, 14);
type = Stem;
},
{
place = (243, 17);
place = (243, 17);
type = Stem;
},
{
place = (341, 17);
place = (341, 17);
type = Stem;
}
);
layerId = m01;
shapes = (
{
closed = 1;
nodes = (
(431,97,o),
(546,265,o),
(633,419,cs),
(687,516,o),
(725,599,o),
(747,667,cs),
(759,706,o),
(767,740,o),
(768,769,cs),
(770,802,o),
(765,828,o),
(753,848,c),
(737,838,l),
(774,777,o),
(732,636,o),
(617,428,cs),
(535,282,o),
(428,125,o),
(355,26,c),
(349,54,o),
(340,91,o),
(330,135,cs),
(309,218,o),
(282,328,o),
(265,433,c),
(290,485,o),
(312,535,o),
(330,580,cs),
(379,701,o),
(389,756,o),
(389,780,cs),
(390,809,o),
(376,814,o),
(367,814,cs),
(327,815,o),
(295,802,o),
(273,774,cs),
(232,723,o),
(221,628,o),
(240,483,cs),
(246,435,l),
(225,390,o),
(203,343,o),
(179,297,cs),
(127,194,o),
(75,101,o),
(32,33,cs),
(10,0,ls),
(-4,-20,o),
(-16,-37,o),
(-27,-49,cs),
(-50,-76,o),
(-59,-77,o),
(-60,-77,c),
(-60,-96,l),
(-48,-96,o),
(-33,-85,o),
(-13,-61,cs),
(0,-46,o),
(15,-26,o),
(32,0,cs),
(48,24,ls),
(91,91,o),
(143,185,o),
(196,289,cs),
(215,327,o),
(234,365,o),
(252,403,c),
(269,306,o),
(293,207,o),
(312,130,cs),
(325,77,o),
(336,30,o),
(341,2,cs),
(341,0,l),
(344,-20,l),
(357,-2,l),
(358,-2,o),
(358,-1,o),
(358,0,c)
);
},
{
closed = 1;
nodes = (
(256,700,o),
(268,738,o),
(287,762,cs),
(306,785,o),
(330,796,o),
(363,796,cs),
(367,796,ls),
(368,796,o),
(368,796,o),
(369,794,cs),
(370,793,o),
(371,789,o),
(371,780,cs),
(371,748,o),
(350,681,o),
(313,587,cs),
(297,550,o),
(280,509,o),
(260,466,c),
(260,473,o),
(259,479,o),
(258,485,cs),
(250,550,o),
(248,605,o),
(251,649,cs)
);
}
);
width = 600;
}
);
note = N;
unicode = 78;
},
{
glyphname = O;
layers = (
{
hints = (
{
horizontal = 1;
place = (-63, 19);
place = (-63, 19);
type = Stem;
},
{
horizontal = 1;
place = (331, 18);
place = (331, 18);
type = Stem;
},
{
horizontal = 1;
place = (501, -20);
target = down;
type = TopGhost;
},
{
horizontal = 1;
place = (780, 19);
place = (780, 19);
type = Stem;
},
{
place = (0, 19);
place = (0, 19);
type = Stem;
},
{
place = (242, 18);
place = (242, 18);
type = Stem;
},
{
place = (734, 18);
place = (734, 18);
type = Stem;
},
{
place = (1122, 19);
place = (1122, 19);
type = Stem;
},
{
horizontal = 1;
place = (337, 19);
place = (337, 19);
type = Stem;
},
{
horizontal = 1;
place = (807, -20);
target = down;
type = TopGhost;
},
{
horizontal = 1;
place = (780, 16);
place = (780, 16);
type = Stem;
}
);
layerId = m01;
shapes = (
{
closed = 1;
nodes = (
(226,-49,o),
(179,-42,o),
(138,-21,cs),
(126,-15,o),
(116,-8,o),
(106,0,cs),
(83,17,o),
(64,40,o),
(49,66,cs),
(30,101,o),
(19,142,o),
(19,181,cs),
(19,281,o),
(49,350,o),
(74,390,cs),
(102,436,o),
(141,470,o),
(179,483,c),
(172,501,l),
(131,486,o),
(89,450,o),
(58,400,cs),
(32,358,o),
(0,286,o),
(0,181,cs),
(0,139,o),
(12,95,o),
(33,57,cs),
(45,35,o),
(60,16,o),
(78,0,cs),
(93,-15,o),
(110,-27,o),
(129,-37,cs),
(162,-54,o),
(198,-63,o),
(238,-63,cs),
(252,-63,o),
(266,-62,o),
(281,-60,cs),
(330,-52,o),
(383,-32,o),
(437,0,cs),
(451,8,o),
(466,18,o),
(481,28,cs),
(524,59,o),
(563,93,o),
(598,130,cs),
(630,165,o),
(658,203,o),
(681,242,cs),
(699,273,o),
(714,305,o),
(725,337,c),
(743,338,o),
(760,341,o),
(777,343,cs),
(836,351,o),
(890,364,o),
(937,381,cs),
(988,400,o),
(1030,423,o),
(1063,451,cs),
(1098,481,o),
(1122,516,o),
(1133,556,cs),
(1147,605,o),
(1143,653,o),
(1122,701,cs),
(1099,751,o),
(1063,786,o),
(1036,807,c),
(1025,792,l),
(1070,757,o),
(1093,719,o),
(1105,693,cs),
(1124,650,o),
(1128,605,o),
(1116,561,cs),
(1105,525,o),
(1084,492,o),
(1051,465,cs),
(1020,439,o),
(980,417,o),
(930,399,cs),
(874,378,o),
(806,364,o),
(732,356,c),
(744,396,o),
(751,435,o),
(752,474,cs),
(754,526,o),
(746,574,o),
(728,617,cs),
(710,661,o),
(683,698,o),
(647,727,cs),
(601,765,o),
(554,788,o),
(508,796,cs),
(466,803,o),
(426,798,o),
(388,781,cs),
(348,764,o),
(312,733,o),
(284,693,cs),
(259,656,o),
(244,615,o),
(242,577,cs),
(240,550,o),
(244,523,o),
(253,498,cs),
(261,474,o),
(275,452,o),
(294,433,cs),
(324,400,o),
(366,375,o),
(419,357,cs),
(472,340,o),
(534,331,o),
(602,331,cs),
(637,331,o),
(671,332,o),
(705,335,c),
(695,307,o),
(681,279,o),
(665,252,cs),
(643,213,o),
(616,177,o),
(584,142,cs),
(551,107,o),
(512,73,o),
(470,44,cs),
(446,27,o),
(422,12,o),
(398,0,cs),
(357,-22,o),
(317,-36,o),
(278,-41,cs)
);
},
{
closed = 1;
nodes = (
(262,610,o),
(277,649,o),
(300,682,cs),
(332,729,o),
(370,753,o),
(396,764,cs),
(416,773,o),
(442,780,o),
(471,780,cs),
(517,780,o),
(573,764,o),
(636,713,cs),
(669,686,o),
(694,651,o),
(711,610,cs),
(728,569,o),
(735,524,o),
(734,475,cs),
(732,435,o),
(725,395,o),
(712,354,c),
(676,351,o),
(639,349,o),
(602,349,cs),
(536,349,o),
(476,358,o),
(425,375,cs),
(375,391,o),
(335,415,o),
(307,445,cs),
(273,482,o),
(257,526,o),
(260,576,cs)
);
}
);
width = 600;
}
);
note = O;
unicode = 79;
},
{
glyphname = P;
layers = (
{
hints = (
{
horizontal = 1;
place = (194, 19);
place = (194, 19);
type = Stem;
},
{
horizontal = 1;
place = (383, 18);
place = (383, 18);
type = Stem;
},
{
horizontal = 1;
place = (699, -20);
target = down;
type = TopGhost;
},
{
horizontal = 1;
place = (788, 19);
place = (788, 19);
type = Stem;
},
{
place = (0, 19);
place = (0, 19);
type = Stem;
},
{
place = (212, 19);
place = (212, 19);
type = Stem;
},
{
place = (588, 18);
place = (588, 18);
type = Stem;
},
{
place = (211, 20);
place = (211, 20);
type = Stem;
}
);
layerId = m01;
shapes = (
{
closed = 1;
nodes = (
(14,-30,o),
(18,-32,o),
(21,-32,cs),
(23,-32,o),
(24,-32,o),
(25,-31,c),
(29,-30,l),
(31,-26,l),
(41,0,ls),
(59,50,o),
(101,165,o),
(140,291,cs),
(171,390,o),
(194,477,o),
(209,550,cs),
(219,596,o),
(225,636,o),
(229,670,c),
(247,689,ls),
(308,748,o),
(379,781,o),
(457,788,cs),
(514,793,o),
(553,770,o),
(573,718,cs),
(597,659,o),
(593,567,o),
(563,471,cs),
(533,375,o),
(481,291,o),
(425,248,cs),
(397,227,o),
(370,215,o),
(342,213,cs),
(312,211,o),
(282,220,o),
(253,241,cs),
(231,257,o),
(224,298,o),
(238,331,cs),
(246,350,o),
(260,364,o),
(278,373,cs),
(301,384,o),
(329,386,o),
(363,379,c),
(366,398,l),
(329,405,o),
(297,402,o),
(270,390,cs),
(248,379,o),
(231,361,o),
(221,338,cs),
(203,297,o),
(213,247,o),
(242,226,cs),
(275,202,o),
(309,192,o),
(343,194,cs),
(375,197,o),
(406,210,o),
(436,233,cs),
(467,257,o),
(495,291,o),
(521,333,cs),
(545,372,o),
(565,418,o),
(580,466,cs),
(595,513,o),
(604,561,o),
(606,605,cs),
(609,652,o),
(604,692,o),
(591,725,cs),
(580,753,o),
(563,775,o),
(541,789,cs),
(518,804,o),
(489,810,o),
(455,807,cs),
(371,799,o),
(295,763,o),
(231,699,c),
(232,720,o),
(231,739,o),
(229,755,c),
(210,752,l),
(213,733,o),
(213,708,o),
(211,678,c),
(159,620,o),
(115,545,o),
(80,453,cs),
(32,327,o),
(13,205,o),
(6,143,cs),
(2,101,o),
(0,62,o),
(0,31,c),
(3,0,ls),
(5,-21,o),
(10,-26,o),
(12,-28,cs)
);
},
{
closed = 1;
nodes = (
(19,72,o),
(21,114,o),
(27,159,cs),
(35,225,o),
(58,356,o),
(113,483,cs),
(140,546,o),
(171,600,o),
(207,645,c),
(196,559,o),
(167,442,o),
(122,297,cs),
(82,165,o),
(38,46,o),
(21,1,c),
(20,9,o),
(19,21,o),
(19,38,cs)
);
}
);
width = 600;
}
);
note = P;
unicode = 80;
},
{
glyphname = Q;
layers = (
{
hints = (
{
horizontal = 1;
place = (-424, 19);
place = (-424, 19);
type = Stem;
},
{
horizontal = 1;
place = (-7, 21);
target = up;
type = BottomGhost;
},
{
horizontal = 1;
place = (754, 19);
place = (754, 19);
type = Stem;
},
{
place = (1, 18);
place = (1, 18);
type = Stem;
},
{
place = (178, 18);
place = (178, 18);
type = Stem;
},
{
place = (331, 19);
place = (331, 19);
type = Stem;
},
{
place = (593, 19);
place = (593, 19);
type = Stem;
},
{
place = (772, 18);
place = (772, 18);
type = Stem;
},
{
place = (640, 21);
place = (640, 21);
type = Stem;
},
{
horizontal = 1;
place = (-49, 19);
place = (-49, 19);
type = Stem;
},
{
horizontal = 1;
place = (-16, 21);
target = up;
type = BottomGhost;
},
{
horizontal = 1;
place = (773, 18);
place = (773, 18);
type = Stem;
}
);
layerId = m01;
shapes = (
{
closed = 1;
nodes = (
(349,35,o),
(348,51,o),
(345,63,cs),
(336,103,o),
(319,130,o),
(294,145,cs),
(272,157,o),
(249,158,o),
(230,159,cs),
(217,160,o),
(205,161,o),
(203,166,cs),
(196,184,o),
(194,203,o),
(196,225,cs),
(198,251,o),
(207,281,o),
(221,313,cs),
(255,391,o),
(322,488,o),
(425,611,cs),
(491,690,o),
(551,724,o),
(590,740,cs),
(595,742,o),
(600,743,o),
(604,745,c),
(615,736,o),
(624,726,o),
(631,715,cs),
(642,696,o),
(645,674,o),
(640,652,c),
(658,648,l),
(667,686,o),
(655,723,o),
(626,751,c),
(662,758,o),
(693,753,o),
(718,738,cs),
(751,717,o),
(769,677,o),
(772,622,cs),
(774,560,o),
(754,480,o),
(713,392,cs),
(663,283,o),
(575,175,o),
(465,90,cs),
(427,60,o),
(387,34,o),
(350,14,c)
);
},
{
closed = 1;
nodes = (
(-6,159,o),
(1,101,o),
(27,55,cs),
(39,34,o),
(55,15,o),
(75,0,cs),
(89,-11,o),
(104,-20,o),
(121,-28,cs),
(154,-42,o),
(191,-50,o),
(223,-49,cs),
(252,-48,o),
(290,-36,o),
(332,-16,c),
(332,-28,o),
(331,-42,o),
(331,-55,cs),
(330,-172,o),
(328,-332,o),
(391,-396,cs),
(409,-415,o),
(432,-424,o),
(459,-424,cs),
(485,-424,o),
(510,-416,o),
(533,-400,cs),
(554,-385,o),
(572,-365,o),
(586,-341,cs),
(601,-315,o),
(610,-287,o),
(612,-260,cs),
(614,-230,o),
(609,-203,o),
(596,-180,c),
(579,-189,l),
(591,-209,o),
(596,-233,o),
(593,-258,cs),
(591,-283,o),
(583,-308,o),
(570,-331,cs),
(557,-353,o),
(541,-372,o),
(522,-385,cs),
(502,-398,o),
(481,-405,o),
(459,-405,cs),
(437,-405,o),
(419,-398,o),
(404,-383,cs),
(379,-357,o),
(363,-311,o),
(355,-242,cs),
(348,-181,o),
(349,-114,o),
(350,-55,cs),
(350,-38,o),
(350,-22,o),
(350,-7,c),
(363,0,ls),
(400,20,o),
(438,46,o),
(476,75,cs),
(589,163,o),
(679,273,o),
(730,385,cs),
(752,431,o),
(768,476,o),
(778,517,cs),
(787,555,o),
(791,591,o),
(790,623,cs),
(789,654,o),
(783,680,o),
(772,703,cs),
(761,724,o),
(746,742,o),
(728,754,cs),
(696,774,o),
(654,778,o),
(608,765,c),
(600,770,o),
(593,774,o),
(584,778,cs),
(558,789,o),
(527,794,o),
(494,791,cs),
(458,789,o),
(421,778,o),
(383,759,cs),
(341,738,o),
(300,707,o),
(259,668,cs),
(214,625,o),
(171,571,o),
(131,507,cs),
(63,402,o),
(21,308,o),
(7,228,cs)
);
},
{
closed = 1;
nodes = (
(39,302,o),
(80,394,o),
(146,497,cs),
(186,559,o),
(228,613,o),
(272,655,cs),
(311,693,o),
(351,722,o),
(391,742,cs),
(427,760,o),
(462,770,o),
(496,773,cs),
(511,773,ls),
(535,773,o),
(557,769,o),
(577,761,cs),
(579,760,o),
(582,759,o),
(584,757,c),
(583,757,l),
(525,734,o),
(465,688,o),
(411,623,cs),
(307,499,o),
(239,400,o),
(204,321,cs),
(189,286,o),
(180,255,o),
(178,227,cs),
(175,202,o),
(178,180,o),
(186,159,cs),
(192,143,o),
(210,142,o),
(229,141,cs),
(265,139,o),
(309,137,o),
(327,59,cs),
(330,47,o),
(331,28,o),
(331,4,c),
(330,4,o),
(328,3,o),
(327,2,c),
(325,2,o),
(324,1,o),
(322,0,cs),
(283,-19,o),
(247,-29,o),
(222,-30,cs),
(193,-31,o),
(159,-24,o),
(129,-11,cs),
(121,-8,o),
(114,-4,o),
(107,0,cs),
(80,16,o),
(58,38,o),
(43,64,cs),
(19,106,o),
(13,160,o),
(25,224,cs)
);
}
);
width = 600;
}
);
note = Q;
unicode = 81;
},
{
glyphname = R;
layers = (
{
hints = (
{
horizontal = 1;
place = (-340, 19);
place = (-340, 19);
type = Stem;
},
{
horizontal = 1;
place = (773, 19);
place = (773, 19);
type = Stem;
},
{
place = (124, 19);
place = (124, 19);
type = Stem;
},
{
place = (572, 18);
place = (572, 18);
type = Stem;
},
{
place = (124, 16);
place = (124, 16);
type = Stem;
}
);
layerId = m01;
shapes = (
{
closed = 1;
nodes = (
(214,161,o),
(196,168,o),
(182,172,c),
(219,188,o),
(260,216,o),
(303,254,cs),
(354,299,o),
(405,357,o),
(452,422,cs),
(497,484,o),
(535,549,o),
(560,606,cs),
(578,649,o),
(599,708,o),
(590,749,cs),
(586,767,o),
(577,780,o),
(563,787,cs),
(549,795,o),
(530,796,o),
(507,792,cs),
(478,786,o),
(447,769,o),
(415,741,cs),
(387,716,o),
(357,683,o),
(326,640,cs),
(275,570,o),
(221,475,o),
(165,359,cs),
(119,264,o),
(80,171,o),
(52,99,c),
(67,165,o),
(84,248,o),
(100,334,cs),
(121,446,o),
(134,540,o),
(140,613,cs),
(147,707,o),
(141,764,o),
(121,788,c),
(107,777,l),
(118,763,o),
(130,723,o),
(121,614,cs),
(116,542,o),
(103,449,o),
(82,337,cs),
(56,198,o),
(25,63,o),
(10,0,cs),
(4,-23,o),
(1,-37,o),
(0,-37,c),
(18,-43,l),
(18,-42,o),
(24,-26,o),
(34,0,cs),
(59,68,o),
(113,209,o),
(181,351,cs),
(306,609,o),
(419,755,o),
(510,773,cs),
(529,777,o),
(544,776,o),
(554,771,cs),
(563,766,o),
(569,758,o),
(572,745,cs),
(584,688,o),
(529,560,o),
(437,433,cs),
(391,369,o),
(341,312,o),
(291,268,cs),
(236,220,o),
(185,189,o),
(141,178,c),
(143,160,l),
(144,160,o),
(178,161,o),
(226,134,cs),
(254,118,o),
(282,95,o),
(308,66,cs),
(326,47,o),
(343,25,o),
(358,0,cs),
(372,-21,o),
(385,-44,o),
(397,-69,cs),
(416,-108,o),
(455,-183,o),
(499,-244,cs),
(519,-272,o),
(538,-295,o),
(556,-310,cs),
(577,-329,o),
(596,-339,o),
(613,-340,cs),
(616,-340,ls),
(634,-340,o),
(650,-330,o),
(662,-311,c),
(646,-301,l),
(637,-316,o),
(627,-322,o),
(614,-321,cs),
(597,-320,o),
(565,-304,o),
(514,-233,cs),
(471,-173,o),
(433,-99,o),
(414,-61,cs),
(403,-39,o),
(392,-19,o),
(380,0,cs),
(362,30,o),
(343,56,o),
(322,79,cs),
(295,109,o),
(265,133,o),
(235,150,cs)
);
}
);
width = 600;
}
);
note = R;
unicode = 82;
},
{
glyphname = S;
layers = (
{
hints = (
{
horizontal = 1;
place = (-55, 18);
place = (-55, 18);
type = Stem;
},
{
horizontal = 1;
place = (114, 23);
place = (114, 23);
type = Stem;
},
{
horizontal = 1;
place = (844, 18);
place = (844, 18);
type = Stem;
},
{
place = (1, 18);
place = (1, 18);
type = Stem;
},
{
place = (78, 19);
place = (78, 19);
type = Stem;
},
{
place = (219, 19);
place = (219, 19);
type = Stem;
},
{
place = (541, 19);
place = (541, 19);
type = Stem;
},
{
place = (214, 21);
place = (214, 21);
type = Stem;
}
);
layerId = m01;
shapes = (
{
closed = 1;
nodes = (
(69,-42,o),
(38,-36,o),
(22,-16,c),
(19,-14,o),
(18,-11,o),
(19,-8,c),
(19,-5,o),
(21,-2,o),
(22,0,cs),
(30,14,o),
(50,31,o),
(83,53,cs),
(119,77,o),
(165,103,o),
(214,131,c),
(206,88,o),
(192,53,o),
(173,25,cs),
(166,15,o),
(159,7,o),
(153,0,cs),
(134,-18,o),
(115,-27,o),
(101,-32,cs)
);
},
{
closed = 1;
nodes = (
(-1,-13,o),
(2,-22,o),
(8,-29,cs),
(23,-46,o),
(46,-55,o),
(72,-55,cs),
(83,-55,o),
(95,-53,o),
(106,-50,cs),
(125,-44,o),
(153,-30,o),
(178,0,c),
(181,5,o),
(185,9,o),
(188,14,cs),
(211,48,o),
(227,91,o),
(235,142,c),
(340,201,o),
(466,49,o),
(477,150,c),
(456,150,l),
(447,98,o),
(330,217,o),
(238,165,c),
(245,251,o),
(204,308,o),
(165,364,cs),
(108,443,o),
(55,517,o),
(145,674,cs),
(237,835,o),
(340,850,o),
(393,844,cs),
(467,836,o),
(520,785,o),
(535,739,cs),
(547,702,o),
(543,664,o),
(524,623,cs),
(508,591,o),
(482,557,o),
(446,523,cs),
(385,465,o),
(315,426,o),
(315,426,c),
(324,409,l),
(327,411,o),
(396,449,o),
(459,509,cs),
(496,545,o),
(524,580,o),
(541,615,cs),
(562,660,o),
(566,703,o),
(553,744,cs),
(544,773,o),
(524,800,o),
(496,822,cs),
(467,845,o),
(432,859,o),
(395,862,cs),
(337,868,o),
(226,853,o),
(128,683,cs),
(33,516,o),
(92,433,o),
(150,353,cs),
(169,326,o),
(189,298,o),
(203,267,cs),
(218,232,o),
(223,199,o),
(219,161,c),
(218,159,o),
(218,156,o),
(218,154,c),
(215,152,ls),
(162,122,o),
(111,94,o),
(73,69,cs),
(30,40,o),
(8,19,o),
(2,0,c),
(1,-1,o),
(1,-3,o),
(1,-4,cs)
);
}
);
width = 456;
}
);
note = S;
unicode = 83;
},
{
glyphname = T;
layers = (
{
hints = (
{
horizontal = 1;
place = (-31, 19);
place = (-31, 19);
type = Stem;
},
{
horizontal = 1;
place = (501, 18);
place = (501, 18);
type = Stem;
},
{
horizontal = 1;
place = (616, 19);
place = (616, 19);
type = Stem;
},
{
horizontal = 1;
place = (730, 19);
place = (730, 19);
type = Stem;
},
{
place = (0, 18);
place = (0, 18);
type = Stem;
},
{
place = (754, 18);
place = (754, 18);
type = Stem;
},
{
horizontal = 1;
place = (739, 18);
place = (739, 18);
type = Stem;
},
{
place = (185, 18);
place = (185, 18);
type = Stem;
}
);
layerId = m01;
shapes = (
{
closed = 1;
nodes = (
(109,-31,l),
(151,-31,o),
(185,-20,o),
(212,0,cs),
(274,44,o),
(303,131,o),
(333,221,cs),
(336,232,o),
(340,243,o),
(344,254,cs),
(362,306,o),
(382,369,o),
(401,430,cs),
(431,522,o),
(458,609,o),
(478,659,c),
(543,634,o),
(599,619,o),
(647,616,cs),
(693,613,o),
(729,621,o),
(751,639,cs),
(770,655,o),
(778,679,o),
(772,705,cs),
(770,720,o),
(759,733,o),
(741,742,cs),
(726,750,o),
(706,755,o),
(683,757,cs),
(642,761,o),
(594,756,o),
(554,743,cs),
(502,726,o),
(479,702,o),
(468,683,c),
(332,736,o),
(158,775,o),
(65,727,cs),
(33,711,o),
(13,685,o),
(4,650,cs),
(-10,589,o),
(12,554,o),
(34,534,cs),
(72,500,o),
(133,494,o),
(170,507,cs),
(189,514,o),
(201,526,o),
(203,540,c),
(185,543,l),
(183,533,o),
(171,527,o),
(164,524,cs),
(132,513,o),
(79,519,o),
(46,548,cs),
(34,559,o),
(26,572,o),
(22,587,cs),
(17,604,o),
(17,623,o),
(22,645,cs),
(29,675,o),
(46,697,o),
(74,711,cs),
(114,732,o),
(177,736,o),
(257,723,cs),
(319,714,o),
(391,693,o),
(461,666,c),
(441,615,o),
(413,528,o),
(384,436,cs),
(364,375,o),
(344,311,o),
(326,260,cs),
(323,249,o),
(319,238,o),
(315,227,cs),
(281,124,o),
(250,32,o),
(174,0,cs),
(155,-8,o),
(134,-12,o),
(109,-12,c)
);
},
{
closed = 1;
nodes = (
(498,696,o),
(524,713,o),
(560,725,cs),
(597,737,o),
(643,742,o),
(681,739,cs),
(723,735,o),
(751,721,o),
(754,702,cs),
(758,682,o),
(753,665,o),
(739,654,cs),
(721,639,o),
(689,632,o),
(648,635,cs),
(603,638,o),
(548,652,o),
(486,676,c)
);
}
);
width = 600;
}
);
note = T;
unicode = 84;
},
{
glyphname = U;
layers = (
{
hints = (
{
horizontal = 1;
place = (-152, 19);
place = (-152, 19);
type = Stem;
},
{
horizontal = 1;
place = (-3, 18);
place = (-3, 18);
type = Stem;
},
{
place = (1, 18);
place = (1, 18);
type = Stem;
}
);
layerId = m01;
shapes = (
{
closed = 1;
nodes = (
(565,466,o),
(659,614,o),
(715,704,c),
(643,516,o),
(488,109,o),
(477,75,cs),
(470,53,o),
(474,31,o),
(488,15,cs),
(505,-2,o),
(531,-9,o),
(558,-3,cs),
(580,2,o),
(601,15,o),
(619,35,cs),
(639,58,o),
(659,112,o),
(669,150,c),
(648,150,l),
(628,54,o),
(593,25,o),
(554,15,cs),
(534,10,o),
(514,15,o),
(502,28,cs),
(492,39,o),
(489,54,o),
(494,70,cs),
(508,112,o),
(765,783,o),
(768,790,c),
(751,798,l),
(750,796,o),
(607,561,o),
(449,329,cs),
(356,193,o),
(276,85,o),
(211,8,cs),
(183,-25,o),
(159,-50,o),
(139,-70,cs),
(88,-121,o),
(60,-133,o),
(45,-133,cs),
(44,-133,ls),
(34,-133,o),
(27,-129,o),
(23,-120,cs),
(18,-109,o),
(17,-92,o),
(19,-70,cs),
(26,-1,o),
(68,119,o),
(140,274,cs),
(219,446,o),
(311,610,o),
(344,649,c),
(330,661,l),
(313,640,o),
(281,589,o),
(243,520,cs),
(202,446,o),
(159,361,o),
(123,282,cs),
(79,188,o),
(46,103,o),
(25,37,cs),
(11,-6,o),
(3,-42,o),
(1,-70,cs),
(-2,-95,o),
(0,-114,o),
(6,-127,cs),
(13,-143,o),
(26,-152,o),
(44,-152,cs),
(45,-152,ls),
(65,-152,o),
(90,-138,o),
(123,-111,cs),
(136,-99,o),
(150,-86,o),
(165,-70,cs),
(184,-51,o),
(204,-29,o),
(225,-4,cs),
(291,74,o),
(371,182,o),
(464,319,cs)
);
}
);
width = 648;
}
);
note = U;
unicode = 85;
},
{
glyphname = V;
layers = (
{
hints = (
{
horizontal = 1;
place = (-15, 19);
place = (-15, 19);
type = Stem;
},
{
place = (71, 19);
place = (71, 19);
type = Stem;
},
{
place = (323, 21);
place = (323, 21);
type = Stem;
},
{
place = (761, 19);
place = (761, 19);
type = Stem;
},
{
place = (0, 18);
place = (0, 18);
type = Stem;
},
{
place = (323, 18);
place = (323, 18);
type = Stem;
}
);
layerId = m01;
shapes = (
{
closed = 1;
nodes = (
(96,-14,o),
(109,-15,o),
(118,-15,cs),
(123,-15,o),
(128,-12,o),
(138,-4,cs),
(139,-3,o),
(140,-2,o),
(141,0,c),
(147,5,o),
(154,13,o),
(163,22,cs),
(183,45,o),
(210,77,o),
(242,115,cs),
(309,198,o),
(391,305,o),
(464,407,cs),
(553,529,o),
(628,641,o),
(681,730,cs),
(747,839,o),
(780,915,o),
(780,955,c),
(761,955,l),
(761,888,o),
(650,695,o),
(456,427,cs),
(384,326,o),
(303,221,o),
(235,137,cs),
(157,40,o),
(125,8,o),
(117,4,c),
(109,4,o),
(104,6,o),
(100,10,cs),
(84,29,o),
(87,98,o),
(109,221,cs),
(114,246,o),
(131,319,o),
(154,405,c),
(187,427,o),
(222,463,o),
(258,511,cs),
(315,589,o),
(335,656,o),
(341,699,cs),
(348,748,o),
(341,792,o),
(324,814,cs),
(314,826,o),
(301,831,o),
(289,825,cs),
(279,821,o),
(263,806,o),
(234,728,cs),
(216,681,o),
(196,618,o),
(173,541,cs),
(161,500,o),
(149,457,o),
(138,417,c),
(137,416,o),
(136,416,o),
(136,415,c),
(109,399,o),
(83,393,o),
(63,398,cs),
(35,404,o),
(22,428,o),
(18,449,c),
(0,446,l),
(5,412,o),
(28,387,o),
(58,380,cs),
(80,374,o),
(105,379,o),
(131,392,c),
(111,313,o),
(95,248,o),
(91,224,cs),
(78,154,o),
(72,103,o),
(71,66,cs),
(71,33,o),
(75,12,o),
(85,0,c),
(85,-1,o),
(86,-1,o),
(86,-2,c)
);
},
{
closed = 1;
nodes = (
(171,467,o),
(181,502,o),
(191,536,cs),
(263,783,o),
(291,806,o),
(296,808,c),
(297,809,o),
(298,809,o),
(299,809,cs),
(302,809,o),
(306,807,o),
(309,802,c),
(320,789,o),
(330,754,o),
(323,702,cs),
(317,661,o),
(298,597,o),
(243,522,cs),
(215,485,o),
(188,455,o),
(162,434,c)
);
}
);
width = 550;
}
);
note = V;
unicode = 86;
},
{
glyphname = W;
layers = (
{
hints = (
{
horizontal = 1;
place = (682, 18);
place = (682, 18);
type = Stem;
},
{
horizontal = 1;
place = (740, 18);
place = (740, 18);
type = Stem;
},
{
place = (20, 19);
place = (20, 19);
type = Stem;
},
{
place = (333, 20);
place = (333, 20);
type = Stem;
},
{
place = (1256, 19);
place = (1256, 19);
type = Stem;
},
{
horizontal = 1;
place = (716, -20);
target = down;
type = TopGhost;
}
);
layerId = m01;
shapes = (
{
closed = 1;
nodes = (
(454,62,o),
(577,189,o),
(707,316,cs),
(813,420,o),
(903,503,o),
(974,564,cs),
(1084,657,o),
(1129,679,o),
(1148,682,cs),
(1183,686,o),
(1214,671,o),
(1235,640,cs),
(1248,621,o),
(1255,596,o),
(1256,570,cs),
(1257,543,o),
(1251,517,o),
(1238,494,c),
(1254,484,l),
(1283,536,o),
(1282,602,o),
(1250,650,cs),
(1225,688,o),
(1187,706,o),
(1146,700,cs),
(1114,696,o),
(1054,656,o),
(962,578,cs),
(891,517,o),
(801,433,o),
(694,329,cs),
(561,199,o),
(435,68,o),
(377,8,c),
(658,716,l),
(77,0,l),
(76,-2,l),
(76,0,l),
(108,72,o),
(162,193,o),
(213,316,cs),
(260,429,o),
(295,522,o),
(319,592,cs),
(359,711,o),
(356,739,o),
(348,751,cs),
(345,756,o),
(339,759,o),
(333,758,c),
(307,757,o),
(273,733,o),
(250,714,cs),
(218,686,o),
(184,649,o),
(152,607,cs),
(117,560,o),
(87,510,o),
(65,460,cs),
(39,403,o),
(24,347,o),
(20,296,c),
(39,294,l),
(43,344,o),
(57,397,o),
(82,452,cs),
(104,501,o),
(133,550,o),
(167,596,cs),
(197,637,o),
(231,673,o),
(262,700,cs),
(291,724,o),
(317,739,o),
(333,740,c),
(334,738,o),
(337,729,o),
(330,698,cs),
(325,674,o),
(316,641,o),
(302,601,cs),
(279,531,o),
(243,439,o),
(197,326,cs),
(144,197,o),
(88,71,o),
(56,0,cs),
(40,-36,o),
(30,-58,o),
(30,-59,c),
(0,-125,l),
(596,610,l),
(354,0,l),
(325,-74,l),
(358,-39,l),
(358,-39,o),
(372,-25,o),
(395,0,cs)
);
}
);
width = 910;
}
);
note = W;
unicode = 87;
},
{
glyphname = X;
layers = (
{
hints = (
{
horizontal = 1;
place = (-2, 19);
place = (-2, 19);
type = Stem;
},
{
horizontal = 1;
place = (825, 19);
place = (825, 19);
type = Stem;
},
{
place = (19, 17);
place = (19, 17);
type = Stem;
}
);
layerId = m01;
shapes = (
{
closed = 1;
nodes = (
(442,95,o),
(460,62,o),
(477,39,cs),
(498,11,o),
(518,-2,o),
(539,-2,cs),
(548,-2,o),
(560,0,o),
(571,5,cs),
(585,10,o),
(599,17,o),
(612,27,cs),
(635,44,o),
(677,94,o),
(687,150,c),
(666,150,l),
(656,98,o),
(622,57,o),
(601,42,cs),
(578,24,o),
(553,17,o),
(539,17,cs),
(511,17,o),
(477,60,o),
(440,146,cs),
(412,212,o),
(384,296,o),
(357,381,c),
(490,585,o),
(631,806,o),
(638,827,c),
(620,833,l),
(615,818,o),
(500,634,o),
(349,404,c),
(346,416,o),
(342,428,o),
(338,440,cs),
(307,537,o),
(277,630,o),
(248,702,cs),
(231,742,o),
(217,771,o),
(202,793,cs),
(186,819,o),
(169,834,o),
(153,839,cs),
(113,850,o),
(77,842,o),
(52,815,cs),
(34,797,o),
(23,771,o),
(19,741,cs),
(14,712,o),
(17,681,o),
(27,651,c),
(45,658,l),
(27,711,o),
(35,770,o),
(65,802,cs),
(86,824,o),
(115,831,o),
(148,821,cs),
(171,814,o),
(199,772,o),
(230,695,cs),
(260,623,o),
(289,531,o),
(320,434,cs),
(326,417,o),
(331,400,o),
(336,384,c),
(322,361,ls),
(265,275,o),
(182,150,o),
(112,49,cs),
(81,4,o),
(56,-31,o),
(37,-57,c),
(34,-60,o),
(32,-63,o),
(30,-66,cs),
(7,-95,o),
(1,-100,o),
(0,-101,c),
(8,-117,l),
(12,-115,o),
(19,-111,o),
(53,-66,cs),
(70,-43,o),
(94,-10,o),
(127,38,cs),
(197,139,o),
(280,264,o),
(337,351,cs),
(344,361,l),
(370,280,o),
(396,202,o),
(423,139,cs)
);
}
);
width = 666;
}
);
note = X;
unicode = 88;
},
{
glyphname = Y;
layers = (
{
hints = (
{
horizontal = 1;
place = (-398, 19);
place = (-398, 19);
type = Stem;
},
{
horizontal = 1;
place = (-16, 20);
place = (-16, 20);
type = Stem;
},
{
horizontal = 1;
place = (514, -20);
target = down;
type = TopGhost;
},
{
horizontal = 1;
place = (826, 18);
place = (826, 18);
type = Stem;
},
{
place = (0, 18);
place = (0, 18);
type = Stem;
},
{
place = (74, 18);
place = (74, 18);
type = Stem;
},
{
place = (253, 19);
place = (253, 19);
type = Stem;
},
{
place = (636, 18);
place = (636, 18);
type = Stem;
},
{
place = (30, 18);
place = (30, 18);
type = Stem;
},
{
place = (0, 22);
place = (0, 22);
type = Stem;
}
);
layerId = m01;
shapes = (
{
closed = 1;
nodes = (
(244,-142,o),
(217,-205,o),
(184,-263,cs),
(131,-357,o),
(98,-376,o),
(83,-379,cs),
(77,-380,o),
(68,-380,o),
(58,-367,cs),
(47,-353,o),
(44,-336,o),
(48,-315,cs),
(56,-273,o),
(94,-227,o),
(124,-196,cs),
(158,-160,o),
(192,-133,o),
(199,-129,cs),
(203,-127,o),
(208,-124,o),
(215,-119,cs),
(226,-113,o),
(240,-104,o),
(257,-94,c),
(254,-106,o),
(251,-115,o),
(250,-119,cs)
);
},
{
closed = 1;
nodes = (
(-3,590,o),
(-2,561,o),
(7,539,cs),
(15,519,o),
(28,505,o),
(48,497,c),
(55,514,l),
(40,520,o),
(30,530,o),
(24,545,cs),
(17,564,o),
(16,590,o),
(22,622,cs),
(27,645,o),
(36,672,o),
(46,693,cs),
(63,730,o),
(89,766,o),
(114,790,cs),
(147,821,o),
(179,832,o),
(209,822,cs),
(225,817,o),
(236,807,o),
(243,791,cs),
(258,758,o),
(256,702,o),
(236,619,cs),
(218,543,o),
(184,442,o),
(131,309,cs),
(96,221,o),
(77,148,o),
(74,94,cs),
(71,51,o),
(79,19,o),
(97,0,cs),
(115,-18,o),
(140,-19,o),
(155,-13,cs),
(173,-7,o),
(212,25,o),
(258,69,cs),
(278,88,o),
(304,114,o),
(333,147,c),
(304,58,o),
(280,-19,o),
(265,-67,c),
(259,-71,o),
(253,-75,o),
(247,-78,cs),
(230,-88,o),
(216,-97,o),
(205,-104,cs),
(190,-113,ls),
(181,-118,o),
(146,-145,o),
(110,-183,cs),
(53,-243,o),
(35,-286,o),
(30,-312,cs),
(25,-337,o),
(29,-360,o),
(43,-378,cs),
(55,-394,o),
(68,-398,o),
(79,-398,cs),
(81,-398,o),
(84,-398,o),
(87,-397,cs),
(119,-391,o),
(157,-349,o),
(200,-272,cs),
(236,-210,o),
(262,-146,o),
(268,-123,cs),
(269,-118,o),
(274,-103,o),
(281,-80,c),
(284,-78,ls),
(330,-51,o),
(389,-21,o),
(443,-1,cs),
(466,8,o),
(466,7,o),
(484,21,c),
(503,40,o),
(521,124,o),
(531,150,c),
(510,150,l),
(481,25,o),
(468,29,o),
(437,16,cs),
(387,-2,o),
(334,-29,o),
(289,-54,c),
(306,3,o),
(333,87,o),
(364,182,c),
(382,204,o),
(402,227,o),
(421,253,cs),
(486,338,o),
(539,424,o),
(577,508,cs),
(624,611,o),
(650,709,o),
(654,801,cs),
(657,859,o),
(651,884,o),
(635,887,cs),
(622,889,o),
(609,876,o),
(591,844,cs),
(577,820,o),
(560,783,o),
(540,736,cs),
(507,656,o),
(466,544,o),
(418,403,cs),
(393,332,o),
(369,259,o),
(347,191,c),
(307,144,o),
(271,107,o),
(245,82,cs),
(196,35,o),
(161,8,o),
(148,4,cs),
(143,2,o),
(125,-1,o),
(110,13,cs),
(96,28,o),
(90,55,o),
(92,93,cs),
(95,145,o),
(114,216,o),
(149,303,cs),
(259,581,o),
(292,730,o),
(260,799,cs),
(251,819,o),
(236,833,o),
(215,839,cs),
(132,867,o),
(59,765,o),
(29,701,cs),
(24,690,o),
(11,661,o),
(4,625,cs)
);
},
{
closed = 1;
nodes = (
(396,281,o),
(414,335,o),
(432,387,cs),
(479,526,o),
(520,637,o),
(553,718,cs),
(572,765,o),
(589,802,o),
(603,827,cs),
(620,859,o),
(628,866,o),
(631,868,c),
(633,864,o),
(638,851,o),
(636,802,cs),
(631,687,o),
(587,501,o),
(407,265,cs),
(397,253,o),
(388,241,o),
(379,230,c)
);
}
);
width = 510;
}
);
note = Y;
unicode = 89;
},
{
glyphname = Z;
layers = (
{
hints = (
{
horizontal = 1;
place = (-8, 19);
place = (-8, 19);
type = Stem;
},
{
horizontal = 1;
place = (120, 18);
place = (120, 18);
type = Stem;
},
{
horizontal = 1;
place = (313, 19);
place = (313, 19);
type = Stem;
},
{
horizontal = 1;
place = (378, 19);
place = (378, 19);
type = Stem;
},
{
horizontal = 1;
place = (621, 18);
place = (621, 18);
type = Stem;
},
{
horizontal = 1;
place = (730, 19);
place = (730, 19);
type = Stem;
},
{
horizontal = 1;
place = (844, 19);
place = (844, 19);
type = Stem;
},
{
place = (66, 10);
place = (66, 10);
type = Stem;
},
{
place = (598, 19);
place = (598, 19);
type = Stem;
},
{
horizontal = 1;
place = (621, 20);
place = (621, 20);
type = Stem;
},
{
horizontal = 1;
place = (378, 15);
place = (378, 15);
type = Stem;
},
{
place = (461, 19);
place = (461, 19);
type = Stem;
},
{
place = (42, 19);
place = (42, 19);
type = Stem;
}
);
layerId = m01;
shapes = (
{
closed = 1;
nodes = (
(505,749,o),
(530,783,o),
(549,806,cs),
(572,834,o),
(582,842,o),
(586,844,c),
(599,827,o),
(606,783,o),
(586,737,cs),
(571,704,o),
(532,649,o),
(432,641,c),
(447,664,o),
(462,686,o),
(475,705,cs)
);
},
{
closed = 1;
nodes = (
(16,-30,l),
(17,-29,o),
(113,120,o),
(208,120,cs),
(256,120,o),
(277,89,o),
(299,56,cs),
(320,25,o),
(342,-8,o),
(388,-8,cs),
(418,-8,o),
(449,-5,o),
(474,13,cs),
(502,33,o),
(511,97,o),
(521,150,c),
(500,150,l),
(490,102,o),
(486,44,o),
(463,28,cs),
(443,13,o),
(415,11,o),
(388,11,cs),
(351,11,o),
(334,37,o),
(314,66,cs),
(292,100,o),
(266,138,o),
(208,138,cs),
(183,138,o),
(157,130,o),
(129,113,cs),
(112,102,o),
(94,88,o),
(76,72,c),
(120,143,o),
(182,246,o),
(248,352,c),
(273,345,ls),
(331,328,o),
(383,313,o),
(421,313,cs),
(438,313,o),
(453,316,o),
(463,324,cs),
(474,332,o),
(480,345,o),
(480,361,c),
(461,361,l),
(461,351,o),
(458,343,o),
(452,339,cs),
(441,331,o),
(419,330,o),
(387,335,cs),
(355,341,o),
(318,351,o),
(279,363,cs),
(258,369,l),
(265,380,o),
(273,392,o),
(280,404,cs),
(332,488,o),
(379,560,o),
(419,621,c),
(465,623,o),
(504,634,o),
(535,653,cs),
(566,672,o),
(589,698,o),
(603,730,cs),
(613,754,o),
(618,780,o),
(617,804,cs),
(615,828,o),
(608,848,o),
(597,859,cs),
(594,862,o),
(590,863,o),
(586,863,cs),
(578,862,o),
(567,856,o),
(537,820,cs),
(517,796,o),
(492,762,o),
(462,719,cs),
(446,695,o),
(428,669,o),
(409,639,c),
(400,639,ls),
(362,640,o),
(340,662,o),
(315,688,cs),
(285,718,o),
(251,752,o),
(187,749,cs),
(121,745,o),
(81,692,o),
(66,644,cs),
(58,619,o),
(56,593,o),
(60,570,cs),
(63,545,o),
(74,526,o),
(90,514,c),
(101,528,l),
(77,547,o),
(69,592,o),
(84,638,cs),
(91,663,o),
(104,685,o),
(121,701,cs),
(140,719,o),
(163,729,o),
(188,730,cs),
(244,733,o),
(272,705,o),
(302,675,cs),
(327,649,o),
(353,623,o),
(397,621,c),
(358,563,o),
(315,495,o),
(266,417,cs),
(257,402,o),
(248,388,o),
(239,374,c),
(211,382,o),
(183,389,o),
(158,393,cs),
(114,400,o),
(84,398,o),
(65,385,cs),
(52,375,o),
(44,361,o),
(42,343,c),
(61,341,l),
(62,354,o),
(67,363,o),
(76,369,cs),
(103,388,o),
(166,375,o),
(229,357,c),
(108,162,o),
(1,-18,o),
(0,-20,c)
);
}
);
width = 500;
}
);
note = Z;
unicode = 90;
},
{
glyphname = a;
layers = (
{
hints = (
{
horizontal = 1;
place = (-3, 22);
place = (-3, 22);
type = Stem;
},
{
horizontal = 1;
place = (516, 21);
place = (516, 21);
type = Stem;
},
{
place = (33, 20);
place = (33, 20);
type = Stem;
},
{
place = (451, 21);
place = (451, 21);
type = Stem;
},
{
place = (516, 23);
place = (516, 23);
type = Stem;
},
{
place = (623.5, 21.5);
place = (623.5, 21.5);
type = Stem;
},
{
horizontal = 1;
place = (-18, 29);
place = (-18, 29);
type = Stem;
}
);
layerId = m01;
shapes = (
{
closed = 1;
nodes = (
(541,-3,o),
(546,-2,o),
(550,0,c),
(578,9,o),
(605,40,o),
(623,79,cs),
(634,101,o),
(641,125,o),
(645,149,c),
(624,149,l),
(623,144,ls),
(611,88,o),
(571,22,o),
(539,19,c),
(529,41,o),
(549,178,o),
(573,296,c),
(553,302,l),
(552,299,o),
(457,59,o),
(249,12,c),
(328,56,o),
(387,152,o),
(404,199,cs),
(408,209,o),
(414,222,o),
(421,236,cs),
(457,307,o),
(515,425,o),
(421,509,cs),
(390,536,o),
(346,544,o),
(298,531,cs),
(196,504,o),
(94,394,o),
(51,264,cs),
(33,207,o),
(24,130,o),
(45,71,c),
(25,96,o),
(29,129,o),
(20,150,c),
(0,150,l),
(11,120,o),
(5,84,o),
(33,52,cs),
(51,32,o),
(73,16,o),
(97,5,c),
(99,3,o),
(102,1,o),
(105,0,c),
(127,-12,o),
(153,-18,o),
(184,-18,cs),
(203,-18,o),
(224,-15,o),
(248,-11,cs),
(260,-8,o),
(273,-4,o),
(285,0,cs),
(363,26,o),
(435,80,o),
(495,160,cs),
(512,182,o),
(526,204,o),
(537,223,c),
(505,45,o),
(518,10,o),
(523,4,cs),
(525,2,o),
(526,1,o),
(528,0,cs),
(531,-2,o),
(533,-3,o),
(536,-3,cs)
);
},
{
closed = 1;
nodes = (
(119,402,o),
(225,490,o),
(303,511,cs),
(333,519,o),
(374,522,o),
(407,493,cs),
(489,420,o),
(437,315,o),
(402,246,cs),
(395,230,o),
(388,217,o),
(384,207,cs),
(362,146,o),
(280,26,o),
(187,11,cs),
(158,7,o),
(131,13,o),
(107,23,c),
(100,28,o),
(93,34,o),
(87,40,cs),
(40,93,o),
(49,190,o),
(71,257,cs)
);
}
);
width = 624;
}
);
note = a;
unicode = 97;
},
{
glyphname = b;
layers = (
{
hints = (
{
horizontal = 1;
place = (1, 23);
place = (1, 23);
type = Stem;
},
{
horizontal = 1;
place = (117, 32);
place = (117, 32);
type = Stem;
},
{
place = (104, 13);
place = (104, 13);
type = Stem;
},
{
place = (447, 21);
place = (447, 21);
type = Stem;
}
);
layerId = m01;
shapes = (
{
closed = 1;
nodes = (
(194,534,ls),
(284,771,o),
(371,925,o),
(415,925,cs),
(417,925,o),
(418,924,o),
(420,924,c),
(429,921,o),
(435,915,o),
(440,905,cs),
(466,850,o),
(414,706,o),
(392,644,cs),
(387,629,ls),
(344,509,o),
(227,393,o),
(135,304,c),
(155,415,o),
(185,511,o),
(193,532,cs)
);
},
{
closed = 1;
nodes = (
(22,150,l),
(32,168,o),
(59,201,o),
(104,245,c),
(97,192,o),
(94,139,o),
(96,90,cs),
(99,27,o),
(132,8,o),
(152,3,cs),
(158,1,o),
(165,1,o),
(172,1,cs),
(213,1,o),
(259,29,o),
(288,74,cs),
(352,172,o),
(396,274,o),
(414,317,c),
(415,318,o),
(415,319,o),
(415,320,c),
(436,277,ls),
(500,144,o),
(518,117,o),
(531,117,cs),
(548,117,o),
(543,138,o),
(553,149,c),
(532,149,l),
(514,172,o),
(475,246,o),
(455,286,cs),
(425,351,o),
(423,352,o),
(415,353,cs),
(409,353,l),
(405,349,l),
(404,346,o),
(401,341,o),
(395,325,cs),
(376,282,o),
(333,182,o),
(270,85,cs),
(241,41,o),
(193,14,o),
(157,24,cs),
(133,30,o),
(119,53,o),
(117,91,cs),
(115,147,o),
(120,209,o),
(129,269,c),
(130,269,o),
(131,270,o),
(132,271,cs),
(228,363,o),
(360,490,o),
(407,622,cs),
(412,637,ls),
(437,707,o),
(489,851,o),
(459,915,cs),
(452,929,o),
(441,939,o),
(427,944,cs),
(387,958,o),
(310,899,o),
(174,542,c),
(174,540,l),
(164,516,o),
(129,404,o),
(109,279,c),
(38,210,o),
(10,178,o),
(0,150,c)
);
}
);
width = 532;
}
);
note = b;
unicode = 98;
},
{
glyphname = c;
layers = (
{
hints = (
{
horizontal = 1;
place = (-17, 21);
place = (-17, 21);
type = Stem;
},
{
horizontal = 1;
place = (502, 21);
place = (502, 21);
type = Stem;
},
{
place = (130, 22);
place = (130, 22);
type = Stem;
},
{
place = (451, 21);
place = (451, 21);
type = Stem;
}
);
layerId = m01;
shapes = (
{
closed = 1;
nodes = (
(493,150,l),
(483,114,o),
(449,67,o),
(385,36,cs),
(328,8,o),
(246,-12,o),
(200,23,cs),
(116,89,o),
(162,238,o),
(186,290,cs),
(200,319,o),
(310,490,o),
(388,502,cs),
(405,505,o),
(419,500,o),
(430,487,cs),
(506,405,o),
(353,250,o),
(351,248,c),
(366,233,l),
(373,240,o),
(535,404,o),
(446,501,cs),
(429,519,o),
(409,527,o),
(385,523,cs),
(295,510,o),
(187,336,o),
(169,303,c),
(158,298,o),
(123,281,o),
(88,258,cs),
(30,219,o),
(10,184,o),
(0,150,c),
(21,150,l),
(31,196,o),
(104,247,o),
(157,273,c),
(135,216,o),
(97,77,o),
(187,7,cs),
(197,0,ls),
(217,-12,o),
(240,-17,o),
(265,-17,cs),
(295,-17,o),
(326,-10,o),
(354,0,cs),
(368,5,o),
(382,10,o),
(394,17,cs),
(449,44,o),
(504,96,o),
(514,150,c)
);
}
);
width = 493;
}
);
note = c;
unicode = 99;
},
{
glyphname = d;
layers = (
{
hints = (
{
horizontal = 1;
place = (-13, 43);
place = (-13, 43);
type = Stem;
},
{
horizontal = 1;
place = (512, 21);
place = (512, 21);
type = Stem;
},
{
place = (0, 22);
place = (0, 22);
type = Stem;
},
{
place = (101, 22);
place = (101, 22);
type = Stem;
},
{
place = (458, 21);
place = (458, 21);
type = Stem;
},
{
place = (655, 22);
place = (655, 22);
type = Stem;
},
{
place = (479, 22);
place = (479, 22);
type = Stem;
},
{
horizontal = 1;
place = (10, 20);
place = (10, 20);
type = Stem;
},
{
horizontal = 1;
place = (-13, 23);
place = (-13, 23);
type = Stem;
}
);
layerId = m01;
shapes = (
{
closed = 1;
nodes = (
(196,-13,o),
(218,-11,o),
(241,-6,cs),
(248,-5,o),
(255,-3,o),
(261,-1,cs),
(296,11,o),
(326,33,o),
(351,61,c),
(366,72,o),
(382,85,o),
(398,100,cs),
(424,124,o),
(451,154,o),
(479,189,c),
(476,135,o),
(501,78,o),
(535,40,cs),
(558,15,o),
(583,2,o),
(605,2,cs),
(612,2,o),
(618,3,o),
(624,5,cs),
(648,15,o),
(667,50,o),
(677,150,c),
(655,150,l),
(645,82,o),
(641,35,o),
(617,25,cs),
(599,18,o),
(574,29,o),
(551,55,cs),
(511,98,o),
(485,176,o),
(512,234,c),
(572,319,o),
(633,429,o),
(698,566,cs),
(777,733,o),
(830,879,o),
(830,880,c),
(810,887,l),
(808,883,o),
(665,489,o),
(493,244,cs),
(462,199,o),
(429,160,o),
(397,128,c),
(426,181,o),
(444,237,o),
(456,271,cs),
(482,351,o),
(495,460,o),
(447,509,cs),
(419,536,o),
(378,540,o),
(322,522,cs),
(151,466,o),
(104,246,o),
(101,172,cs),
(100,128,o),
(119,46,o),
(178,18,cs),
(187,14,o),
(196,11,o),
(205,10,c),
(133,2,o),
(82,22,o),
(64,39,cs),
(46,56,o),
(32,90,o),
(22,150,c),
(0,150,l),
(10,81,o),
(29,44,o),
(50,23,cs),
(58,15,o),
(74,6,o),
(95,-1,cs),
(116,-8,o),
(143,-13,o),
(175,-13,cs)
);
},
{
closed = 1;
nodes = (
(125,228,o),
(166,449,o),
(329,502,cs),
(349,509,o),
(366,512,o),
(382,512,cs),
(403,512,o),
(419,506,o),
(432,494,cs),
(470,455,o),
(462,357,o),
(435,278,cs),
(420,230,o),
(390,139,o),
(336,77,c),
(276,33,o),
(225,20,o),
(187,37,cs),
(140,59,o),
(121,129,o),
(123,172,cs)
);
},
{
closed = 1;
nodes = (
(512,234,o),
(513,235,o),
(512,234,c)
);
}
);
width = 655;
}
);
note = d;
unicode = 100;
},
{
glyphname = e;
layers = (
{
hints = (
{
horizontal = 1;
place = (-11, 21);
place = (-11, 21);
type = Stem;
},
{
horizontal = 1;
place = (227, 19);
place = (227, 19);
type = Stem;
},
{
horizontal = 1;
place = (508, 21);
place = (508, 21);
type = Stem;
},
{
place = (117, 22);
place = (117, 22);
type = Stem;
},
{
place = (405, 22);
place = (405, 22);
type = Stem;
},
{
place = (117, 24);
place = (117, 24);
type = Stem;
}
);
layerId = m01;
shapes = (
{
closed = 1;
nodes = (
(373,-11,o),
(396,-8,o),
(418,0,cs),
(474,19,o),
(511,65,o),
(521,149,c),
(499,149,l),
(489,47,o),
(423,10,o),
(350,10,cs),
(249,10,o),
(139,81,o),
(139,195,cs),
(139,205,o),
(139,215,o),
(140,224,c),
(167,230,ls),
(238,243,o),
(319,257,o),
(369,308,cs),
(419,357,o),
(439,423,o),
(419,471,cs),
(404,508,o),
(367,529,o),
(316,529,cs),
(226,529,o),
(133,423,o),
(119,242,c),
(54,228,o),
(10,210,o),
(0,150,c),
(22,150,l),
(32,192,o),
(57,207,o),
(118,220,c),
(118,212,o),
(117,203,o),
(117,195,cs),
(117,96,o),
(191,26,o),
(277,0,cs),
(301,-7,o),
(326,-11,o),
(350,-11,cs)
);
},
{
closed = 1;
nodes = (
(155,380,o),
(219,508,o),
(316,508,cs),
(359,508,o),
(387,492,o),
(399,463,cs),
(416,423,o),
(397,366,o),
(354,323,cs),
(309,277,o),
(231,263,o),
(163,251,c),
(156,249,o),
(149,248,o),
(141,246,c)
);
}
);
width = 500;
}
);
note = e;
unicode = 101;
},
{
glyphname = f;
layers = (
{
hints = (
{
horizontal = 1;
place = (-461, 21);
place = (-461, 21);
type = Stem;
},
{
horizontal = 1;
place = (0, 19);
place = (0, 19);
type = Stem;
},
{
place = (0, 21);
place = (0, 21);
type = Stem;
},
{
place = (63, 22);
place = (63, 22);
type = Stem;
},
{
place = (321, 21);
place = (321, 21);
type = Stem;
},
{
place = (520, 21);
place = (520, 21);
type = Stem;
}
);
layerId = m01;
shapes = (
{
closed = 1;
nodes = (
(318,-366,o),
(199,-405,o),
(128,-428,cs),
(126,-429,ls),
(109,-434,o),
(91,-441,o),
(85,-440,c),
(83,-429,o),
(99,-387,o),
(121,-329,cs),
(237,0,l),
(245,23,l),
(264,75,l),
(268,72,o),
(272,69,o),
(277,66,c),
(289,49,o),
(300,27,o),
(308,0,cs),
(316,-32,o),
(321,-71,o),
(321,-122,cs)
);
},
{
closed = 1;
nodes = (
(21,150,l),
(31,217,o),
(389,657,o),
(539,824,c),
(476,705,o),
(382,468,o),
(256,118,c),
(241,130,o),
(225,140,o),
(209,149,cs),
(199,155,o),
(190,161,o),
(181,167,c),
(170,177,o),
(160,186,o),
(152,194,c),
(136,180,l),
(146,168,o),
(156,159,o),
(168,150,cs),
(188,133,o),
(215,110,o),
(246,88,c),
(225,30,l),
(214,0,l),
(101,-322,ls),
(65,-416,o),
(56,-441,o),
(69,-455,c),
(74,-459,o),
(79,-461,o),
(85,-461,cs),
(96,-461,o),
(111,-456,o),
(132,-449,cs),
(135,-448,ls),
(206,-425,o),
(339,-382,o),
(342,-123,cs),
(343,-73,o),
(338,-33,o),
(329,0,cs),
(325,15,o),
(320,30,o),
(315,42,c),
(351,21,o),
(388,5,o),
(422,0,cs),
(436,-3,o),
(450,-3,o),
(462,0,cs),
(468,1,o),
(474,2,o),
(480,5,cs),
(520,22,o),
(531,71,o),
(541,149,c),
(520,149,l),
(510,80,o),
(504,38,o),
(471,24,cs),
(428,6,o),
(357,39,o),
(291,82,c),
(286,90,o),
(280,96,o),
(273,102,c),
(508,759,o),
(586,882,o),
(612,896,c),
(602,914,l),
(598,912,l),
(593,909,l),
(575,904,o),
(350,637,o),
(288,562,cs),
(50,271,o),
(10,178,o),
(0,150,c)
);
}
);
width = 520;
}
);
note = f;
unicode = 102;
},
{
glyphname = g;
layers = (
{
hints = (
{
horizontal = 1;
place = (-465, 21);
place = (-465, 21);
type = Stem;
},
{
horizontal = 1;
place = (-27, 29);
place = (-27, 29);
type = Stem;
},
{
horizontal = 1;
place = (511, 21);
place = (511, 21);
type = Stem;
},
{
place = (37, 21);
place = (37, 21);
type = Stem;
},
{
place = (395, 22);
place = (395, 22);
type = Stem;
},
{
place = (466, 20);
place = (466, 20);
type = Stem;
},
{
place = (528, 22);
place = (528, 22);
type = Stem;
},
{
place = (682, 22);
place = (682, 22);
type = Stem;
},
{
place = (0, 18);
place = (0, 18);
type = Stem;
}
);
layerId = m01;
shapes = (
{
closed = 1;
nodes = (
(262,-15,o),
(283,-9,o),
(303,0,cs),
(371,28,o),
(434,79,o),
(488,150,cs),
(505,173,o),
(519,195,o),
(531,214,c),
(526,170,o),
(526,116,o),
(546,72,cs),
(551,61,o),
(558,48,o),
(565,33,cs),
(582,0,ls),
(590,-18,o),
(599,-36,o),
(608,-57,c),
(599,-62,ls),
(493,-129,o),
(393,-191,o),
(395,-278,cs),
(398,-390,o),
(463,-446,o),
(523,-461,cs),
(535,-464,o),
(548,-465,o),
(560,-465,cs),
(611,-465,o),
(659,-438,o),
(686,-391,cs),
(730,-312,o),
(685,-176,o),
(635,-65,c),
(668,-44,o),
(701,-23,o),
(729,0,cs),
(784,43,o),
(815,93,o),
(825,150,c),
(804,150,l),
(794,94,o),
(756,44,o),
(694,0,cs),
(673,-16,o),
(650,-30,o),
(627,-45,c),
(619,-30,o),
(612,-15,o),
(605,0,cs),
(598,15,o),
(591,29,o),
(584,42,cs),
(577,57,o),
(570,70,o),
(566,81,c),
(529,160,o),
(566,284,o),
(566,286,c),
(546,293,l),
(545,290,o),
(454,61,o),
(257,6,c),
(324,41,o),
(372,102,o),
(398,142,cs),
(480,267,o),
(509,407,o),
(469,481,cs),
(451,514,o),
(421,532,o),
(383,532,cs),
(298,532,o),
(227,477,o),
(182,431,cs),
(130,378,o),
(86,309,o),
(62,245,cs),
(43,193,o),
(31,131,o),
(41,79,c),
(35,89,o),
(29,99,o),
(24,110,cs),
(18,124,o),
(15,137,o),
(21,150,c),
(0,150,l),
(-6,121,o),
(5,89,o),
(24,61,cs),
(35,44,o),
(49,29,o),
(64,16,cs),
(67,13,o),
(71,10,o),
(75,8,c),
(78,5,o),
(81,2,o),
(84,0,cs),
(119,-28,o),
(171,-34,o),
(240,-20,cs)
);
},
{
closed = 1;
nodes = (
(123,348,o),
(246,511,o),
(383,511,cs),
(414,511,o),
(436,497,o),
(451,471,cs),
(487,403,o),
(458,273,o),
(380,154,cs),
(354,113,o),
(282,18,o),
(180,2,cs),
(141,-4,o),
(110,9,o),
(89,24,cs),
(88,25,o),
(86,26,o),
(85,28,c),
(44,76,o),
(56,168,o),
(82,237,cs)
);
},
{
closed = 1;
nodes = (
(415,-203,o),
(514,-141,o),
(611,-80,cs),
(613,-79,o),
(615,-78,o),
(617,-76,c),
(663,-181,o),
(706,-311,o),
(667,-381,cs),
(639,-431,o),
(585,-454,o),
(528,-440,cs),
(476,-427,o),
(419,-378,o),
(417,-278,cs)
);
}
);
width = 804;
}
);
note = g;
unicode = 103;
},
{
glyphname = h;
layers = (
{
hints = (
{
horizontal = 1;
place = (-17, 20);
place = (-17, 20);
type = Stem;
},
{
horizontal = 1;
place = (930, 22);
place = (930, 22);
type = Stem;
},
{
place = (609, 21);
place = (609, 21);
type = Stem;
},
{
place = (653, 21);
place = (653, 21);
type = Stem;
}
);
layerId = m01;
shapes = (
{
closed = 1;
nodes = (
(562,-16,o),
(565,-16,o),
(569,-15,cs),
(580,-12,o),
(596,-9,o),
(612,0,cs),
(643,18,o),
(664,58,o),
(674,150,c),
(653,150,l),
(643,28,o),
(598,13,o),
(564,6,cs),
(553,3,ls),
(540,-1,o),
(521,29,o),
(502,57,cs),
(471,104,o),
(432,163,o),
(369,173,cs),
(316,182,o),
(247,127,o),
(163,11,c),
(193,85,o),
(231,180,o),
(241,213,cs),
(246,232,o),
(261,279,o),
(282,340,c),
(366,388,o),
(450,452,o),
(503,553,cs),
(517,581,o),
(531,605,o),
(545,629,cs),
(582,694,o),
(614,749,o),
(630,829,cs),
(634,852,o),
(631,934,o),
(593,949,cs),
(564,961,o),
(528,933,o),
(485,863,cs),
(404,735,o),
(316,505,o),
(265,354,c),
(234,337,o),
(203,321,o),
(174,307,cs),
(77,258,o),
(10,221,o),
(0,150,c),
(22,150,l),
(32,208,o),
(93,242,o),
(183,288,cs),
(206,299,o),
(230,311,o),
(254,324,c),
(237,274,o),
(225,236,o),
(220,219,cs),
(210,185,o),
(167,76,o),
(136,0,cs),
(120,-39,o),
(107,-69,o),
(104,-76,cs),
(100,-86,l),
(109,-90,ls),
(111,-91,o),
(112,-92,o),
(114,-92,cs),
(119,-92,o),
(123,-86,o),
(129,-77,cs),
(148,-48,o),
(165,-22,o),
(181,0,cs),
(283,140,o),
(339,157,o),
(366,152,cs),
(420,144,o),
(456,89,o),
(484,45,cs),
(496,28,o),
(506,12,o),
(517,0,cs),
(530,-14,o),
(543,-22,o),
(559,-17,cs)
);
},
{
closed = 1;
nodes = (
(345,520,o),
(427,732,o),
(502,852,cs),
(545,919,o),
(569,930,o),
(580,930,cs),
(582,930,o),
(583,930,o),
(585,929,cs),
(607,921,o),
(613,856,o),
(609,833,cs),
(594,757,o),
(563,702,o),
(526,640,cs),
(513,616,o),
(498,591,o),
(484,563,cs),
(438,475,o),
(367,416,o),
(293,371,c)
);
}
);
width = 653;
}
);
note = h;
unicode = 104;
},
{
glyphname = i;
layers = (
{
hints = (
{
horizontal = 1;
place = (0, 21);
place = (0, 21);
type = Stem;
},
{
horizontal = 1;
place = (514, -20);
target = down;
type = TopGhost;
},
{
place = (39, 21);
place = (39, 21);
type = Stem;
},
{
place = (295, 22);
place = (295, 22);
type = Stem;
},
{
horizontal = 1;
place = (506, -20);
target = down;
type = TopGhost;
}
);
layerId = m01;
shapes = (
{
closed = 1;
nodes = (
(188,0,o),
(214,4,o),
(237,14,cs),
(274,29,o),
(307,65,o),
(317,144,c),
(295,144,l),
(290,115,o),
(284,90,o),
(272,71,cs),
(263,55,o),
(249,42,o),
(229,34,cs),
(171,9,o),
(94,26,o),
(74,45,cs),
(66,52,o),
(62,61,o),
(60,71,cs),
(55,105,o),
(82,158,o),
(127,250,cs),
(159,316,o),
(200,398,o),
(245,506,c),
(226,514,l),
(136,371,o),
(10,181,o),
(0,142,c),
(21,142,l),
(29,168,o),
(97,276,o),
(171,391,c),
(148,340,o),
(126,297,o),
(108,259,cs),
(63,170,o),
(35,112,o),
(39,71,cs),
(41,55,o),
(47,42,o),
(60,30,cs),
(77,13,o),
(119,0,o),
(163,0,cs)
);
},
{
closed = 1;
nodes = (
(262,584,l),
(281,575,l),
(318,653,l),
(299,662,l)
);
}
);
width = 295;
}
);
note = i;
unicode = 105;
},
{
glyphname = j;
layers = (
{
hints = (
{
horizontal = 1;
place = (-604, 21);
place = (-604, 21);
type = Stem;
},
{
horizontal = 1;
place = (27, 26);
place = (27, 26);
type = Stem;
},
{
horizontal = 1;
place = (506, -20);
target = down;
type = TopGhost;
},
{
place = (-79, 22);
place = (-79, 22);
type = Stem;
},
{
place = (126, 16);
place = (126, 16);
type = Stem;
},
{
place = (179, 21);
place = (179, 21);
type = Stem;
},
{
place = (440, 21);
place = (440, 21);
type = Stem;
},
{
horizontal = 1;
place = (27, 21);
place = (27, 21);
type = Stem;
}
);
layerId = m01;
shapes = (
{
closed = 1;
nodes = (
(176,-509,o),
(57,-548,o),
(-14,-571,cs),
(-17,-572,ls),
(-33,-578,o),
(-51,-584,o),
(-57,-583,c),
(-59,-573,o),
(-43,-530,o),
(-21,-472,cs),
(98,-135,ls),
(106,-113,o),
(118,-81,o),
(133,-42,c),
(162,-83,o),
(180,-151,o),
(179,-266,cs)
);
},
{
closed = 1;
nodes = (
(-69,-603,o),
(-64,-604,o),
(-57,-604,cs),
(-46,-604,o),
(-31,-600,o),
(-10,-593,cs),
(-7,-592,ls),
(64,-568,o),
(197,-525,o),
(200,-266,cs),
(201,-137,o),
(178,-64,o),
(142,-20,c),
(145,-13,o),
(148,-7,o),
(150,0,cs),
(154,9,o),
(158,18,o),
(161,27,c),
(262,29,o),
(382,41,o),
(434,89,cs),
(452,105,o),
(461,127,o),
(461,150,c),
(440,150,l),
(440,133,o),
(433,117,o),
(420,105,cs),
(374,63,o),
(265,51,o),
(170,48,c),
(251,244,o),
(362,503,o),
(363,506,c),
(355,510,l),
(347,520,l),
(346,519,o),
(257,444,o),
(169,361,cs),
(7,210,o),
(10,168,o),
(0,149,c),
(22,149,l),
(32,188,o),
(192,358,o),
(326,475,c),
(291,392,o),
(209,200,o),
(147,48,c),
(69,47,o),
(5,53,o),
(4,53,c),
(0,33,l),
(31,24,o),
(62,16,o),
(89,0,cs),
(99,-6,o),
(109,-14,o),
(118,-23,c),
(101,-67,o),
(86,-103,o),
(78,-128,cs),
(-41,-465,ls),
(-77,-559,o),
(-86,-584,o),
(-73,-598,cs)
);
},
{
closed = 1;
nodes = (
(99,27,o),
(118,27,o),
(138,27,c),
(135,18,o),
(131,9,o),
(128,0,c),
(126,-3,l),
(126,-2,o),
(125,-1,o),
(124,0,cs),
(111,12,o),
(97,20,o),
(82,28,c)
);
},
{
closed = 1;
nodes = (
(403,668,l),
(422,659,l),
(460,736,l),
(441,745,l)
);
}
);
width = 440;
}
);
note = j;
unicode = 106;
},
{
glyphname = k;
layers = (
{
hints = (
{
horizontal = 1;
place = (47, 21);
place = (47, 21);
type = Stem;
},
{
horizontal = 1;
place = (117, 22);
place = (117, 22);
type = Stem;
},
{
horizontal = 1;
place = (431, 21);
place = (431, 21);
type = Stem;
},
{
place = (790, 21);
place = (790, 21);
type = Stem;
}
);
layerId = m01;
shapes = (
{
closed = 1;
nodes = (
(646,431,o),
(669,428,o),
(673,414,cs),
(683,386,o),
(603,272,o),
(349,85,cs),
(278,32,l),
(360,66,ls),
(445,102,o),
(590,143,o),
(615,99,cs),
(635,65,o),
(801,-22,o),
(811,150,c),
(790,150,l),
(780,18,o),
(652,78,o),
(633,110,cs),
(604,161,o),
(493,135,o),
(419,111,c),
(525,193,o),
(716,354,o),
(694,421,cs),
(687,441,o),
(664,452,o),
(627,452,cs),
(518,452,o),
(347,260,o),
(235,117,c),
(379,367,o),
(640,821,o),
(674,890,c),
(673,903,l),
(661,906,l),
(647,901,o),
(417,649,o),
(324,545,cs),
(2,184,o),
(10,192,o),
(0,150,c),
(22,150,l),
(32,194,o),
(110,274,o),
(339,529,cs),
(453,657,o),
(562,775,o),
(622,839,c),
(519,652,o),
(224,141,o),
(143,0,cs),
(130,-22,o),
(122,-35,o),
(122,-36,c),
(140,-47,l),
(140,-47,o),
(152,-29,o),
(173,0,cs),
(207,46,o),
(262,120,o),
(324,193,cs),
(457,348,o),
(562,431,o),
(627,431,cs)
);
}
);
width = 790;
}
);
note = k;
unicode = 107;
},
{
glyphname = l;
layers = (
{
hints = (
{
horizontal = 1;
place = (0, 21);
place = (0, 21);
type = Stem;
},
{
horizontal = 1;
place = (903, 21);
place = (903, 21);
type = Stem;
},
{
place = (126, 21);
place = (126, 21);
type = Stem;
},
{
place = (519, 21);
place = (519, 21);
type = Stem;
}
);
layerId = m01;
shapes = (
{
closed = 1;
nodes = (
(277,653,o),
(424,903,o),
(497,903,cs),
(504,903,o),
(509,901,o),
(513,895,cs),
(545,842,o),
(450,597,o),
(406,509,cs),
(341,375,o),
(245,315,o),
(164,275,c),
(172,310,o),
(182,348,o),
(195,389,cs)
);
},
{
closed = 1;
nodes = (
(21,150,l),
(31,196,o),
(65,206,o),
(132,237,c),
(133,237,o),
(134,238,o),
(135,238,c),
(120,150,o),
(120,64,o),
(165,32,cs),
(189,16,o),
(244,0,o),
(300,0,cs),
(333,0,o),
(366,6,o),
(394,20,cs),
(437,42,o),
(450,85,o),
(460,150,c),
(438,150,l),
(428,97,o),
(420,58,o),
(384,39,cs),
(316,3,o),
(207,29,o),
(178,49,cs),
(145,72,o),
(138,144,o),
(158,249,c),
(245,290,o),
(353,351,o),
(425,499,cs),
(441,532,o),
(477,615,o),
(505,698,cs),
(541,808,o),
(549,876,o),
(531,906,cs),
(523,918,o),
(512,924,o),
(497,924,cs),
(396,924,o),
(242,612,o),
(174,396,cs),
(163,358,o),
(149,311,o),
(140,264,c),
(123,256,ls),
(54,224,o),
(10,210,o),
(0,150,c)
);
}
);
width = 438;
}
);
note = l;
unicode = 108;
},
{
glyphname = m;
layers = (
{
hints = (
{
horizontal = 1;
place = (4, 15);
place = (4, 15);
type = Stem;
},
{
horizontal = 1;
place = (483, 21);
place = (483, 21);
type = Stem;
},
{
place = (0, 21);
place = (0, 21);
type = Stem;
},
{
place = (155, 38);
place = (155, 38);
type = Stem;
},
{
place = (620, 22);
place = (620, 22);
type = Stem;
},
{
horizontal = 1;
place = (461, 21);
place = (461, 21);
type = Stem;
},
{
place = (170, 23);
place = (170, 23);
type = Stem;
},
{
place = (1160, 22);
place = (1160, 22);
type = Stem;
}
);
layerId = m01;
shapes = (
{
closed = 1;
nodes = (
(21,150,l),
(31,310,o),
(97,477,o),
(134,483,cs),
(143,484,o),
(150,476,o),
(155,460,cs),
(180,373,o),
(173,85,o),
(171,0,cs),
(170,-15,o),
(170,-24,o),
(170,-24,c),
(168,-66,l),
(190,-30,l),
(190,-30,o),
(197,-19,o),
(208,0,cs),
(235,44,o),
(290,131,o),
(351,217,cs),
(500,429,o),
(559,461,o),
(581,461,cs),
(587,461,o),
(593,458,o),
(598,452,cs),
(638,405,o),
(618,196,o),
(590,31,c),
(588,25,o),
(592,18,o),
(598,15,cs),
(604,12,o),
(611,14,o),
(616,19,cs),
(713,133,o),
(839,269,o),
(874,280,cs),
(890,284,o),
(911,223,o),
(927,177,cs),
(953,101,o),
(984,14,o),
(1038,4,cs),
(1046,2,o),
(1054,1,o),
(1061,0,cs),
(1080,-3,o),
(1096,-3,o),
(1110,0,cs),
(1121,2,o),
(1131,7,o),
(1140,14,cs),
(1170,38,o),
(1171,67,o),
(1182,150,c),
(1160,150,l),
(1149,76,o),
(1150,50,o),
(1127,30,cs),
(1109,16,o),
(1081,17,o),
(1042,24,cs),
(1000,32,o),
(970,117,o),
(947,184,cs),
(922,255,o),
(903,310,o),
(868,300,cs),
(823,286,o),
(685,132,o),
(614,50,c),
(667,362,o),
(632,445,o),
(614,466,cs),
(605,477,o),
(594,482,o),
(581,482,cs),
(488,482,o),
(266,134,o),
(193,15,c),
(195,117,o),
(200,380,o),
(175,465,cs),
(165,503,o),
(143,505,o),
(131,504,cs),
(64,494,o),
(10,305,o),
(0,150,c)
);
}
);
width = 1161;
}
);
note = m;
unicode = 109;
},
{
glyphname = n;
layers = (
{
hints = (
{
horizontal = 1;
place = (-11, 21);
place = (-11, 21);
type = Stem;
},
{
horizontal = 1;
place = (466, 21);
place = (466, 21);
type = Stem;
},
{
place = (134, 21);
place = (134, 21);
type = Stem;
},
{
place = (491, 22);
place = (491, 22);
type = Stem;
},
{
place = (685, 21);
place = (685, 21);
type = Stem;
},
{
place = (451, 22);
place = (451, 22);
type = Stem;
},
{
horizontal = 1;
place = (439, 21);
place = (439, 21);
type = Stem;
}
);
layerId = m01;
shapes = (
{
closed = 1;
nodes = (
(685,150,l),
(675,46,o),
(633,10,o),
(608,10,cs),
(495,10,o),
(473,80,o),
(473,192,cs),
(473,217,o),
(482,255,o),
(492,291,cs),
(509,356,o),
(524,416,o),
(501,445,cs),
(492,456,o),
(479,461,o),
(462,460,cs),
(355,456,o),
(158,198,o),
(53,49,c),
(77,115,o),
(109,205,o),
(125,248,cs),
(171,375,o),
(157,448,o),
(129,474,cs),
(115,488,o),
(96,491,o),
(77,482,cs),
(30,462,o),
(19,368,o),
(0,150,c),
(21,150,l),
(40,344,o),
(46,446,o),
(85,463,cs),
(97,468,o),
(107,467,o),
(115,459,cs),
(137,438,o),
(147,373,o),
(105,256,cs),
(85,199,o),
(37,68,o),
(16,9,cs),
(15,6,o),
(15,3,o),
(16,0,cs),
(17,-4,o),
(19,-7,o),
(23,-9,cs),
(30,-12,o),
(37,-10,o),
(42,-4,cs),
(45,0,ls),
(190,211,o),
(375,435,o),
(462,439,cs),
(473,440,o),
(480,437,o),
(484,432,cs),
(501,411,o),
(485,350,o),
(471,297,cs),
(461,257,o),
(451,220,o),
(451,192,cs),
(451,107,o),
(464,28,o),
(540,0,cs),
(559,-7,o),
(581,-11,o),
(608,-11,cs),
(630,-11,o),
(631,-7,o),
(645,0,c),
(681,26,o),
(696,59,o),
(706,150,c)
);
}
);
width = 685;
}
);
note = n;
unicode = 110;
},
{
glyphname = o;
layers = (
{
hints = (
{
horizontal = 1;
place = (5, 15);
place = (5, 15);
type = Stem;
},
{
horizontal = 1;
place = (469, 19);
place = (469, 19);
type = Stem;
},
{
place = (-25, 21);
place = (-25, 21);
type = Stem;
},
{
place = (299, 21);
place = (299, 21);
type = Stem;
},
{
place = (508, 21);
place = (508, 21);
type = Stem;
},
{
place = (630, 22);
place = (630, 22);
type = Stem;
},
{
horizontal = 1;
place = (-18, 21);
place = (-18, 21);
type = Stem;
},
{
horizontal = 1;
place = (491, 22);
place = (491, 22);
type = Stem;
}
);
layerId = m01;
shapes = (
{
closed = 1;
nodes = (
(586,1,o),
(590,3,o),
(595,5,cs),
(632,21,o),
(642,72,o),
(652,150,c),
(630,150,l),
(620,82,o),
(615,37,o),
(586,24,cs),
(556,11,o),
(508,30,o),
(458,76,cs),
(433,98,o),
(412,122,o),
(394,146,c),
(459,217,o),
(503,291,o),
(517,324,cs),
(537,374,o),
(533,421,o),
(507,454,cs),
(484,482,o),
(448,495,o),
(412,488,cs),
(364,479,o),
(325,439,o),
(305,377,cs),
(284,314,o),
(316,225,o),
(367,149,c),
(294,73,o),
(198,3,o),
(98,3,cs),
(52,3,o),
(22,20,o),
(7,52,cs),
(-28,127,o),
(27,270,o),
(101,357,cs),
(185,456,o),
(293,491,o),
(360,491,c),
(360,513,l),
(288,513,o),
(173,476,o),
(85,371,cs),
(7,280,o),
(-52,128,o),
(-13,43,cs),
(-6,28,o),
(6,12,o),
(25,0,cs),
(42,-10,o),
(66,-18,o),
(98,-18,cs),
(130,-18,o),
(162,-11,o),
(193,0,cs),
(263,26,o),
(327,77,o),
(380,131,c),
(399,105,o),
(421,80,o),
(444,60,cs),
(481,26,o),
(518,5,o),
(550,0,cs),
(561,-2,o),
(571,-2,o),
(581,0,cs)
);
},
{
closed = 1;
nodes = (
(343,425,o),
(376,460,o),
(416,467,cs),
(421,468,o),
(426,469,o),
(431,469,cs),
(454,469,o),
(476,459,o),
(490,441,cs),
(512,414,o),
(514,375,o),
(497,332,cs),
(485,302,o),
(442,232,o),
(381,165,c),
(329,243,o),
(310,324,o),
(325,371,cs)
);
}
);
width = 630;
}
);
note = o;
unicode = 111;
},
{
glyphname = p;
layers = (
{
hints = (
{
horizontal = 1;
place = (-3, 21);
place = (-3, 21);
type = Stem;
},
{
place = (532, 21);
place = (532, 21);
type = Stem;
}
);
layerId = m01;
shapes = (
{
closed = 1;
nodes = (
(39,-243,l),
(339,518,l),
(322,529,l),
(289,498,o),
(10,211,o),
(0,140,c),
(22,140,l),
(32,182,o),
(181,361,o),
(301,480,c),
(-17,-328,l),
(-19,-331,l),
(-94,-522,l),
(-74,-529,l),
(1,-338,l),
(451,338,l),
(521,310,o),
(534,205,o),
(532,171,cs),
(532,169,ls),
(531,139,o),
(535,61,o),
(573,21,cs),
(583,11,o),
(594,4,o),
(607,0,cs),
(615,-2,o),
(623,-3,o),
(632,-3,cs),
(640,-3,ls),
(660,-3,o),
(668,-3,o),
(688,0,cs),
(711,4,o),
(732,12,o),
(750,29,cs),
(774,54,o),
(776,95,o),
(786,150,c),
(765,150,l),
(755,101,o),
(755,65,o),
(735,44,cs),
(708,18,o),
(667,18,o),
(640,18,cs),
(632,18,ls),
(614,18,o),
(600,24,o),
(588,35,cs),
(556,69,o),
(552,141,o),
(553,168,c),
(554,170,l),
(555,211,o),
(539,334,o),
(450,361,cs),
(442,364,l),
(201,0,l)
);
}
);
width = 765;
}
);
note = p;
unicode = 112;
},
{
glyphname = q;
layers = (
{
hints = (
{
horizontal = 1;
place = (-27, 21);
place = (-27, 21);
type = Stem;
},
{
horizontal = 1;
place = (44, 21);
place = (44, 21);
type = Stem;
},
{
horizontal = 1;
place = (502, 21);
place = (502, 21);
type = Stem;
},
{
place = (54, 21);
place = (54, 21);
type = Stem;
},
{
place = (446, 21);
place = (446, 21);
type = Stem;
},
{
place = (626, 22);
place = (626, 22);
type = Stem;
}
);
layerId = m01;
shapes = (
{
closed = 1;
nodes = (
(171,-9,o),
(152,-6,o),
(135,0,cs),
(106,10,o),
(84,29,o),
(70,47,cs),
(29,96,o),
(10,130,o),
(20,150,c),
(0,150,l),
(-10,123,o),
(12,83,o),
(54,33,cs),
(64,20,o),
(76,9,o),
(90,0,cs),
(122,-23,o),
(158,-32,o),
(196,-27,cs),
(224,-23,o),
(251,-14,o),
(275,0,cs),
(328,28,o),
(372,75,o),
(407,141,c),
(449,172,o),
(487,205,o),
(516,236,c),
(243,-512,l),
(263,-520,l),
(428,-67,l),
(449,-45,o),
(480,-34,o),
(512,-23,cs),
(531,-16,o),
(550,-10,o),
(568,0,cs),
(611,22,o),
(638,62,o),
(648,150,c),
(626,150,l),
(616,45,o),
(572,20,o),
(512,0,cs),
(505,-3,ls),
(483,-10,o),
(461,-18,o),
(441,-30,c),
(561,298,l),
(565,306,o),
(568,313,o),
(569,320,c),
(548,325,l),
(541,306,l),
(524,273,o),
(481,226,o),
(427,183,c),
(436,203,o),
(444,225,o),
(451,248,cs),
(485,357,o),
(460,423,o),
(433,459,cs),
(395,508,o),
(337,525,o),
(295,523,cs),
(245,522,o),
(160,474,o),
(107,398,cs),
(68,342,o),
(30,247,o),
(72,118,cs),
(90,66,o),
(130,40,o),
(189,44,cs),
(242,48,o),
(307,76,o),
(367,114,c),
(327,54,o),
(278,15,o),
(219,0,cs),
(210,-3,o),
(202,-4,o),
(193,-6,cs)
);
},
{
closed = 1;
nodes = (
(52,245,o),
(88,334,o),
(125,386,cs),
(178,463,o),
(259,501,o),
(296,502,cs),
(300,502,ls),
(336,502,o),
(384,488,o),
(416,446,cs),
(451,400,o),
(456,334,o),
(431,254,cs),
(419,217,o),
(406,184,o),
(391,155,c),
(325,108,o),
(250,69,o),
(187,65,cs),
(138,62,o),
(107,81,o),
(93,125,cs)
);
}
);
width = 626;
}
);
note = q;
unicode = 113;
},
{
glyphname = r;
layers = (
{
hints = (
{
horizontal = 1;
place = (-18, 21);
place = (-18, 21);
type = Stem;
},
{
horizontal = 1;
place = (388, 21);
place = (388, 21);
type = Stem;
},
{
horizontal = 1;
place = (573, 21);
place = (573, 21);
type = Stem;
},
{
place = (31, 21);
place = (31, 21);
type = Stem;
},
{
place = (140, 21);
place = (140, 21);
type = Stem;
},
{
place = (345, 21);
place = (345, 21);
type = Stem;
},
{
place = (0, 21);
place = (0, 21);
type = Stem;
}
);
layerId = m01;
shapes = (
{
closed = 1;
nodes = (
(118,460,ls),
(69,489,o),
(52,523,o),
(52,543,cs),
(52,562,o),
(66,573,o),
(91,573,cs),
(111,573,o),
(124,568,o),
(131,557,cs),
(145,538,o),
(141,500,o),
(129,454,c)
);
},
{
closed = 1;
nodes = (
(21,147,l),
(31,227,o),
(60,195,o),
(98,296,cs),
(115,342,o),
(131,385,o),
(142,423,c),
(185,405,o),
(188,388,o),
(277,388,cs),
(309,388,o),
(331,387,o),
(339,375,cs),
(356,351,o),
(334,271,o),
(294,157,cs),
(278,104,o),
(306,72,o),
(316,61,cs),
(339,32,o),
(368,13,o),
(396,0,cs),
(425,-13,o),
(453,-18,o),
(471,-18,cs),
(480,-18,l),
(510,-14,o),
(538,-8,o),
(561,0,cs),
(636,27,o),
(666,80,o),
(676,150,c),
(655,150,l),
(645,46,o),
(558,12,o),
(477,3,cs),
(450,0,o),
(377,18,o),
(332,74,cs),
(319,88,o),
(306,120,o),
(314,150,c),
(367,301,o),
(377,359,o),
(357,387,cs),
(341,409,o),
(310,409,o),
(277,409,cs),
(189,409,o),
(189,426,o),
(148,444,c),
(163,499,o),
(167,543,o),
(148,570,cs),
(137,586,o),
(118,594,o),
(91,594,cs),
(55,594,o),
(31,574,o),
(31,543,cs),
(31,509,o),
(60,470,o),
(107,441,c),
(112,439,o),
(117,436,o),
(123,433,c),
(111,393,o),
(94,348,o),
(78,304,cs),
(39,200,o),
(10,230,o),
(0,147,c)
);
}
);
width = 655;
}
);
note = r;
unicode = 114;
},
{
glyphname = s;
layers = (
{
hints = (
{
horizontal = 1;
place = (-18, 22);
place = (-18, 22);
type = Stem;
},
{
horizontal = 1;
place = (138, 21);
place = (138, 21);
type = Stem;
},
{
horizontal = 1;
place = (754, 22);
place = (754, 22);
type = Stem;
},
{
place = (0, 21);
place = (0, 21);
type = Stem;
},
{
place = (168, 21);
place = (168, 21);
type = Stem;
},
{
place = (293, 21);
place = (293, 21);
type = Stem;
},
{
place = (495, 19);
place = (495, 19);
type = Stem;
},
{
horizontal = 1;
place = (3, 21);
place = (3, 21);
type = Stem;
},
{
place = (166, 21);
place = (166, 21);
type = Stem;
}
);
layerId = m01;
shapes = (
{
closed = 1;
nodes = (
(230,4,o),
(189,54,o),
(189,90,cs),
(189,103,o),
(195,115,o),
(204,123,cs),
(216,133,o),
(234,138,o),
(257,138,cs),
(291,138,o),
(345,107,o),
(397,76,cs),
(408,70,o),
(419,64,o),
(429,58,c),
(387,18,o),
(362,4,o),
(307,4,cs)
);
},
{
closed = 1;
nodes = (
(21,150,l),
(31,222,o),
(154,400,o),
(218,487,cs),
(238,515,l),
(252,504,o),
(269,492,o),
(286,480,cs),
(323,453,o),
(366,422,o),
(398,390,cs),
(487,300,o),
(533,161,o),
(455,83,cs),
(452,80,o),
(448,77,o),
(445,74,c),
(408,95,ls),
(351,128,o),
(296,159,o),
(257,159,cs),
(229,159,o),
(206,152,o),
(191,139,cs),
(176,127,o),
(168,109,o),
(168,90,cs),
(168,56,o),
(191,21,o),
(230,0,cs),
(251,-11,o),
(277,-18,o),
(307,-18,cs),
(342,-18,o),
(366,-12,o),
(389,0,cs),
(409,11,o),
(427,27,o),
(449,47,c),
(513,13,o),
(574,-12,o),
(616,13,cs),
(649,31,o),
(654,78,o),
(664,150,c),
(643,150,l),
(633,87,o),
(630,45,o),
(605,31,cs),
(573,12,o),
(520,34,o),
(465,63,c),
(467,65,o),
(468,67,o),
(470,68,c),
(506,104,o),
(522,158,o),
(514,218,cs),
(508,263,o),
(486,332,o),
(413,405,cs),
(380,438,o),
(336,469,o),
(298,497,cs),
(281,509,o),
(265,521,o),
(250,532,c),
(252,535,o),
(254,538,o),
(256,540,c),
(284,584,o),
(333,711,o),
(308,757,cs),
(301,769,o),
(291,776,o),
(277,776,cs),
(235,776,o),
(203,757,o),
(184,723,cs),
(157,674,o),
(162,602,o),
(183,568,cs),
(191,555,o),
(205,542,o),
(221,528,c),
(201,500,ls),
(104,368,o),
(10,223,o),
(0,150,c)
);
},
{
closed = 1;
nodes = (
(186,604,o),
(178,669,o),
(203,713,cs),
(218,740,o),
(243,754,o),
(277,754,cs),
(283,754,o),
(286,752,o),
(289,747,cs),
(308,713,o),
(266,595,o),
(238,552,cs),
(237,550,o),
(235,548,o),
(234,545,c),
(219,558,o),
(208,569,o),
(201,579,cs)
);
}
);
width = 643;
}
);
note = s;
unicode = 115;
},
{
glyphname = t;
layers = (
{
hints = (
{
horizontal = 1;
place = (-15, 22);
place = (-15, 22);
type = Stem;
},
{
horizontal = 1;
place = (502, 22);
place = (502, 22);
type = Stem;
},
{
place = (187, 21);
place = (187, 21);
type = Stem;
},
{
horizontal = 1;
place = (505, -20);
target = down;
type = TopGhost;
},
{
horizontal = 1;
place = (509, -20);
target = down;
type = TopGhost;
}
);
layerId = m01;
shapes = (
{
closed = 1;
nodes = (
(378,723,o),
(329,616,o),
(286,505,c),
(259,501,o),
(234,496,o),
(210,492,c),
(278,598,o),
(354,711,o),
(417,804,c)
);
},
{
closed = 1;
nodes = (
(21,150,l),
(31,186,o),
(98,316,o),
(194,467,c),
(219,472,o),
(248,477,o),
(277,482,c),
(207,297,o),
(158,108,o),
(206,28,cs),
(214,16,o),
(223,7,o),
(234,0,cs),
(249,-10,o),
(267,-14,o),
(288,-14,cs),
(297,-15,l),
(309,-15,ls),
(335,-15,o),
(370,-13,o),
(403,0,cs),
(419,6,o),
(435,15,o),
(448,29,cs),
(476,56,o),
(480,98,o),
(490,150,c),
(469,150,l),
(459,104,o),
(457,67,o),
(433,44,cs),
(395,6,o),
(334,6,o),
(297,7,cs),
(288,7,ls),
(258,7,o),
(238,17,o),
(225,39,cs),
(187,102,o),
(213,256,o),
(302,486,c),
(389,499,o),
(487,508,o),
(577,502,c),
(578,524,l),
(490,529,o),
(395,521,o),
(311,509,c),
(315,521,o),
(320,533,o),
(325,545,cs),
(407,746,o),
(503,928,o),
(504,929,c),
(486,940,l),
(474,924,o),
(314,695,o),
(181,486,c),
(104,470,o),
(52,455,o),
(47,454,c),
(53,434,l),
(54,434,o),
(97,446,o),
(164,461,c),
(73,318,o),
(10,189,o),
(0,150,c)
);
}
);
width = 469;
}
);
note = t;
unicode = 116;
},
{
glyphname = u;
layers = (
{
hints = (
{
horizontal = 1;
place = (-25, 25);
place = (-25, 25);
type = Stem;
},
{
horizontal = 1;
place = (493, 21);
place = (493, 21);
type = Stem;
},
{
place = (83, 20);
place = (83, 20);
type = Stem;
},
{
place = (289, 23);
place = (289, 23);
type = Stem;
},
{
place = (639, 21);
place = (639, 21);
type = Stem;
},
{
horizontal = 1;
place = (-25, 21);
place = (-25, 21);
type = Stem;
},
{
horizontal = 1;
place = (-6, 22);
place = (-6, 22);
type = Stem;
}
);
layerId = m01;
shapes = (
{
closed = 1;
nodes = (
(190,0,ls),
(132,13,o),
(103,49,o),
(103,111,cs),
(102,149,o),
(113,193,o),
(129,236,c),
(132,238,o),
(135,240,o),
(139,241,c),
(215,279,o),
(271,342,o),
(298,420,cs),
(317,479,o),
(313,496,o),
(307,505,cs),
(303,511,o),
(296,514,o),
(289,514,cs),
(258,514,o),
(162,381,o),
(112,252,c),
(36,212,o),
(10,215,o),
(0,150,c),
(21,150,l),
(31,199,o),
(49,192,o),
(101,222,c),
(92,194,o),
(86,167,o),
(83,141,cs),
(76,75,o),
(94,27,o),
(135,0,cs),
(149,-9,o),
(166,-16,o),
(185,-21,cs),
(199,-24,o),
(212,-25,o),
(226,-25,cs),
(258,-25,o),
(290,-16,o),
(322,0,cs),
(371,25,o),
(420,68,o),
(468,129,c),
(488,94,o),
(536,21,o),
(581,0,cs),
(588,-4,o),
(596,-6,o),
(603,-6,cs),
(613,-5,l),
(616,-4,o),
(620,-2,o),
(623,0,cs),
(648,16,o),
(651,65,o),
(660,150,c),
(639,150,l),
(630,38,o),
(617,19,o),
(607,16,cs),
(577,8,o),
(517,86,o),
(482,147,c),
(490,159,o),
(498,170,o),
(506,183,cs),
(584,299,o),
(631,424,o),
(631,425,c),
(612,433,l),
(610,428,o),
(462,42,o),
(261,0,cs),
(239,-5,o),
(215,-5,o),
(191,0,cs)
);
},
{
closed = 1;
nodes = (
(190,381,o),
(271,488,o),
(289,493,c),
(289,493,o),
(297,484,o),
(278,427,cs),
(254,359,o),
(206,302,o),
(141,266,c)
);
}
);
width = 639;
}
);
note = u;
unicode = 117;
},
{
glyphname = v;
layers = (
{
hints = (
{
horizontal = 1;
place = (141, 9);
place = (141, 9);
type = Stem;
},
{
horizontal = 1;
place = (349, 21);
place = (349, 21);
type = Stem;
},
{
horizontal = 1;
place = (444, 21);
place = (444, 21);
type = Stem;
},
{
place = (0, 22);
place = (0, 22);
type = Stem;
},
{
place = (210, 18);
place = (210, 18);
type = Stem;
},
{
place = (354, 23);
place = (354, 23);
type = Stem;
},
{
horizontal = 1;
place = (116, 34);
place = (116, 34);
type = Stem;
}
);
layerId = m01;
shapes = (
{
closed = 1;
nodes = (
(379,425,o),
(379,440,o),
(372,450,cs),
(365,460,o),
(353,465,o),
(336,465,cs),
(211,465,o),
(10,467,o),
(0,150,c),
(22,150,l),
(32,423,o),
(177,444,o),
(336,444,cs),
(346,444,o),
(352,442,o),
(354,438,cs),
(357,434,o),
(356,425,o),
(352,414,cs),
(253,161,o),
(219,50,o),
(210,0,cs),
(204,-37,o),
(211,-41,o),
(215,-44,cs),
(218,-46,o),
(222,-47,o),
(226,-47,cs),
(229,-47,o),
(234,-46,o),
(238,-44,cs),
(253,-39,o),
(274,-23,o),
(298,0,cs),
(373,70,o),
(476,209,o),
(521,349,c),
(720,360,o),
(793,223,o),
(828,156,cs),
(843,129,o),
(850,116,o),
(864,116,cs),
(876,116,o),
(875,136,o),
(885,150,c),
(864,150,l),
(861,147,o),
(860,145,o),
(859,144,c),
(847,166,ls),
(809,238,o),
(731,386,o),
(512,370,cs),
(505,370,l),
(503,363,ls),
(454,202,o),
(332,56,o),
(266,0,cs),
(249,-15,o),
(236,-24,o),
(228,-26,c),
(228,-21,o),
(229,-13,o),
(231,0,cs),
(242,52,o),
(283,178,o),
(372,407,cs)
);
},
{
closed = 1;
nodes = (
(861,141,o),
(861,141,o),
(861,141,c)
);
}
);
width = 864;
}
);
note = v;
unicode = 118;
},
{
glyphname = w;
layers = (
{
hints = (
{
horizontal = 1;
place = (-210, 21);
target = up;
type = BottomGhost;
},
{
horizontal = 1;
place = (77, 21);
place = (77, 21);
type = Stem;
},
{
horizontal = 1;
place = (492, 22);
place = (492, 22);
type = Stem;
},
{
place = (0, 21);
place = (0, 21);
type = Stem;
},
{
place = (287, 21);
place = (287, 21);
type = Stem;
},
{
place = (529, 20);
place = (529, 20);
type = Stem;
},
{
place = (671, 22);
place = (671, 22);
type = Stem;
},
{
place = (824, 19);
place = (824, 19);
type = Stem;
},
{
place = (1006, 21);
place = (1006, 21);
type = Stem;
},
{
horizontal = 1;
place = (520, 22);
place = (520, 22);
type = Stem;
}
);
layerId = m01;
shapes = (
{
closed = 1;
nodes = (
(840,202,o),
(930,77,o),
(986,77,cs),
(1002,77,o),
(1017,91,o),
(1027,150,c),
(1006,150,l),
(1004,136,o),
(1000,98,o),
(986,98,cs),
(941,98,o),
(845,235,o),
(843,344,cs),
(843,352,l),
(835,355,l),
(825,357,o),
(825,357,o),
(768,262,cs),
(729,197,o),
(656,75,o),
(602,0,cs),
(580,-32,o),
(560,-56,o),
(549,-62,c),
(548,-51,o),
(552,-29,o),
(559,0,cs),
(573,57,o),
(598,141,o),
(618,208,cs),
(679,414,o),
(706,513,o),
(687,536,cs),
(683,540,o),
(678,543,o),
(672,542,cs),
(660,541,o),
(631,538,o),
(395,194,cs),
(348,126,o),
(303,57,o),
(265,0,cs),
(240,-37,o),
(219,-70,o),
(203,-95,c),
(209,-67,o),
(217,-35,o),
(224,0,cs),
(269,198,o),
(326,478,o),
(303,508,cs),
(300,512,o),
(295,514,o),
(291,514,cs),
(240,514,o),
(10,310,o),
(0,150,c),
(21,150,l),
(31,298,o),
(240,482,o),
(287,492,c),
(297,457,o),
(255,236,o),
(203,0,cs),
(191,-50,o),
(180,-100,o),
(168,-149,cs),
(153,-210,l),
(187,-158,ls),
(221,-105,o),
(255,-52,o),
(290,0,cs),
(464,263,o),
(634,503,o),
(671,520,c),
(679,491,o),
(630,325,o),
(597,214,cs),
(568,116,o),
(548,47,o),
(537,0,cs),
(527,-44,o),
(526,-69,o),
(533,-78,cs),
(536,-82,o),
(541,-85,o),
(546,-85,cs),
(560,-85,o),
(581,-67,o),
(628,0,cs),
(663,51,o),
(713,130,o),
(786,251,cs),
(800,275,o),
(814,298,o),
(824,314,c)
);
}
);
width = 1006;
}
);
note = w;
unicode = 119;
},
{
glyphname = x;
layers = (
{
hints = (
{
horizontal = 1;
place = (-28, 21);
place = (-28, 21);
type = Stem;
},
{
horizontal = 1;
place = (493, 21);
place = (493, 21);
type = Stem;
},
{
place = (477, 18.5);
place = (477, 18.5);
type = Stem;
},
{
horizontal = 1;
place = (6, 21);
place = (6, 21);
type = Stem;
},
{
place = (471.5, 24);
place = (471.5, 24);
type = Stem;
},
{
horizontal = 1;
place = (506, -20);
target = down;
type = TopGhost;
},
{
horizontal = 1;
place = (504, -20);
target = down;
type = TopGhost;
}
);
layerId = m01;
shapes = (
{
closed = 1;
nodes = (
(804,150,l),
(794,101,o),
(791,61,o),
(766,36,cs),
(746,16,o),
(721,6,o),
(695,0,cs),
(664,-7,o),
(632,-7,o),
(608,-7,cs),
(599,-7,ls),
(589,-7,o),
(581,-4,o),
(573,0,cs),
(526,25,o),
(509,118,o),
(497,215,cs),
(494,241,ls),
(493,252,o),
(492,264,o),
(490,275,cs),
(477,403,o),
(465,514,o),
(401,514,cs),
(288,514,o),
(235,418,o),
(187,334,cs),
(182,324,o),
(176,314,o),
(170,304,c),
(189,293,l),
(194,303,o),
(200,313,o),
(206,323,cs),
(253,407,o),
(301,493,o),
(401,493,cs),
(446,493,o),
(458,381,o),
(469,273,cs),
(471,257,o),
(473,241,o),
(474,225,c),
(342,121,o),
(197,27,o),
(107,27,cs),
(98,27,o),
(90,28,o),
(82,30,cs),
(41,40,o),
(11,81,o),
(21,150,c),
(0,150,l),
(-10,84,o),
(18,38,o),
(55,18,cs),
(69,10,o),
(86,6,o),
(106,6,cs),
(165,6,o),
(247,40,o),
(351,108,cs),
(391,135,o),
(434,166,o),
(477,200,c),
(488,116,o),
(503,39,o),
(538,0,cs),
(554,-18,o),
(574,-28,o),
(599,-28,cs),
(608,-28,l),
(619,-28,ls),
(658,-28,o),
(711,-26,o),
(754,0,cs),
(764,6,o),
(773,12,o),
(781,21,cs),
(811,50,o),
(816,95,o),
(826,150,c)
);
},
{
closed = 1;
nodes = (
(497,215,l),
(654,339,o),
(804,485,o),
(803,504,c),
(782,502,l),
(781,504,o),
(782,505,o),
(782,506,c),
(782,506,o),
(782,506,o),
(782,506,c),
(782,506,o),
(782,506,o),
(782,506,c),
(775,492,o),
(645,362,o),
(494,241,c)
);
}
);
width = 804;
}
);
note = x;
unicode = 120;
},
{
glyphname = y;
layers = (
{
hints = (
{
horizontal = 1;
place = (-513, 23);
place = (-513, 23);
type = Stem;
},
{
horizontal = 1;
place = (-37, 21);
place = (-37, 21);
type = Stem;
},
{
horizontal = 1;
place = (387, 44);
place = (387, 44);
type = Stem;
},
{
horizontal = 1;
place = (508, -20);
target = down;
type = TopGhost;
},
{
place = (19, 21);
place = (19, 21);
type = Stem;
},
{
place = (276, 14);
place = (276, 14);
type = Stem;
},
{
place = (0, 21);
place = (0, 21);
type = Stem;
},
{
place = (100, 22.5);
place = (100, 22.5);
type = Stem;
},
{
horizontal = 1;
place = (500, -20);
target = down;
type = TopGhost;
}
);
layerId = m01;
shapes = (
{
closed = 1;
nodes = (
(276,387,l),
(286,384,l),
(294,405,o),
(288,416,o),
(281,422,cs),
(262,440,o),
(223,426,o),
(201,417,cs),
(123,383,o),
(10,282,o),
(0,150,c),
(21,150,l),
(31,272,o),
(136,366,o),
(209,397,cs),
(243,412,o),
(262,411,o),
(267,407,cs),
(270,404,o),
(268,396,o),
(266,392,cs),
(244,356,o),
(82,95,o),
(100,0,cs),
(101,-4,o),
(102,-8,o),
(104,-12,cs),
(110,-25,o),
(121,-34,o),
(135,-36,c),
(138,-37,o),
(140,-37,o),
(142,-37,cs),
(163,-37,o),
(192,-24,o),
(226,0,cs),
(320,66,o),
(455,213,o),
(561,396,c),
(436,0,ls),
(428,-23,o),
(421,-45,o),
(414,-66,c),
(393,-75,o),
(372,-83,o),
(351,-91,cs),
(273,-122,o),
(206,-148,o),
(169,-179,cs),
(83,-254,o),
(1,-388,o),
(23,-463,cs),
(31,-490,o),
(51,-507,o),
(82,-511,cs),
(91,-512,o),
(101,-513,o),
(112,-513,cs),
(191,-513,o),
(291,-467,o),
(365,-280,cs),
(376,-252,o),
(401,-176,o),
(431,-82,c),
(490,-58,o),
(547,-32,o),
(592,0,cs),
(647,39,o),
(674,89,o),
(684,150,c),
(662,150,l),
(652,88,o),
(617,39,o),
(553,0,cs),
(519,-20,o),
(480,-39,o),
(440,-56,c),
(458,0,ls),
(528,219,o),
(610,483,o),
(616,500,c),
(605,503,l),
(596,508,l),
(596,508,o),
(596,507,o),
(595,507,c),
(595,505,l),
(469,243,o),
(281,54,o),
(186,0,cs),
(168,-10,o),
(153,-16,o),
(143,-16,cs),
(141,-16,o),
(140,-15,o),
(139,-15,cs),
(131,-14,o),
(126,-10,o),
(123,-3,c),
(123,-2,o),
(122,-1,o),
(122,0,c),
(100,67,o),
(232,297,o),
(285,381,c)
);
},
{
closed = 1;
nodes = (
(26,-398,o),
(93,-273,o),
(183,-195,cs),
(217,-166,o),
(286,-139,o),
(358,-111,cs),
(406,-93,l),
(378,-178,o),
(355,-246,o),
(345,-272,cs),
(283,-430,o),
(192,-505,o),
(85,-490,cs),
(62,-487,o),
(49,-476,o),
(43,-457,cs)
);
}
);
width = 662;
}
);
note = y;
unicode = 121;
},
{
glyphname = z;
layers = (
{
hints = (
{
horizontal = 1;
place = (-529, 22);
place = (-529, 22);
type = Stem;
},
{
horizontal = 1;
place = (-14, 21);
target = up;
type = BottomGhost;
},
{
horizontal = 1;
place = (517, -20);
target = down;
type = TopGhost;
},
{
horizontal = 1;
place = (586, 22);
place = (586, 22);
type = Stem;
},
{
place = (12, 21);
place = (12, 21);
type = Stem;
},
{
place = (172, 22);
place = (172, 22);
type = Stem;
},
{
place = (511, 22);
place = (511, 22);
type = Stem;
},
{
horizontal = 1;
place = (473, 22);
place = (473, 22);
type = Stem;
},
{
place = (0, 21);
place = (0, 21);
type = Stem;
},
{
place = (511, 20);
place = (511, 20);
type = Stem;
},
{
place = (676, 21);
place = (676, 21);
type = Stem;
},
{
horizontal = 1;
place = (505, -20);
target = down;
type = TopGhost;
},
{
place = (510, 21);
place = (510, 21);
type = Stem;
}
);
layerId = m01;
shapes = (
{
closed = 1;
nodes = (
(34,581,o),
(46,585,o),
(66,586,c),
(70,577,o),
(77,555,o),
(85,517,c),
(56,535,o),
(32,560,o),
(33,574,cs)
);
},
{
closed = 1;
nodes = (
(21,149,l),
(31,365,o),
(126,410,o),
(114,481,c),
(119,479,o),
(124,478,o),
(129,477,cs),
(143,475,o),
(159,474,o),
(175,473,cs),
(233,471,o),
(287,468,o),
(299,396,cs),
(310,322,o),
(240,107,o),
(204,0,cs),
(191,-36,o),
(182,-60,o),
(182,-61,c),
(201,-70,l),
(211,-52,o),
(227,-27,o),
(245,0,cs),
(303,85,o),
(390,191,o),
(449,171,cs),
(505,153,o),
(516,80,o),
(511,3,c),
(502,0,ls),
(444,-14,o),
(381,-35,o),
(326,-90,cs),
(245,-171,o),
(143,-399,o),
(180,-490,cs),
(191,-515,o),
(211,-529,o),
(239,-529,cs),
(393,-529,o),
(492,-255,o),
(511,-155,cs),
(518,-116,o),
(527,-65,o),
(531,-14,c),
(535,-14,l),
(554,-9,o),
(572,-5,o),
(589,0,cs),
(651,20,o),
(688,51,o),
(697,149,c),
(676,149,l),
(667,42,o),
(616,27,o),
(533,8,c),
(536,91,o),
(522,170,o),
(456,192,cs),
(409,207,o),
(348,169,o),
(275,78,cs),
(260,58,o),
(245,38,o),
(233,20,c),
(271,134,o),
(331,326,o),
(320,399,cs),
(306,488,o),
(234,492,o),
(176,495,cs),
(160,495,o),
(145,496,o),
(132,498,cs),
(125,499,o),
(117,502,o),
(110,505,c),
(97,572,o),
(84,600,o),
(83,602,cs),
(80,608,l),
(73,608,ls),
(25,608,o),
(13,590,o),
(12,575,cs),
(10,547,o),
(50,510,o),
(91,490,c),
(103,420,o),
(10,384,o),
(0,149,c)
);
},
{
closed = 1;
nodes = (
(169,-406,o),
(260,-186,o),
(341,-105,cs),
(393,-53,o),
(454,-33,o),
(510,-20,c),
(505,-67,o),
(497,-115,o),
(490,-151,cs),
(467,-271,o),
(367,-507,o),
(239,-507,cs),
(219,-507,o),
(207,-499,o),
(200,-482,cs)
);
}
);
width = 676;
}
);
note = z;
unicode = 122;
},
{
glyphname = period;
layers = (
{
hints = (
{
horizontal = 1;
place = (-1, 81);
place = (-1, 81);
type = Stem;
},
{
place = (267, 81);
place = (267, 81);
type = Stem;
}
);
layerId = m01;
shapes = (
{
closed = 1;
nodes = (
(330,-1,o),
(348,17,o),
(348,40,cs),
(348,62,o),
(330,80,o),
(308,80,cs),
(285,80,o),
(267,62,o),
(267,40,cs),
(267,17,o),
(285,-1,o),
(308,-1,cs)
);
}
);
width = 600;
}
);
note = period;
unicode = 46;
},
{
glyphname = comma;
layers = (
{
hints = (
{
horizontal = 1;
place = (-76, 128);
place = (-76, 128);
type = Stem;
},
{
place = (256, 66);
place = (256, 66);
type = Stem;
}
);
layerId = m01;
shapes = (
{
closed = 1;
nodes = (
(310,52,o),
(322,32,o),
(322,10,cs),
(322,-12,o),
(289,-61,o),
(263,-75,cs),
(237,-89,o),
(292,0,o),
(267,11,cs),
(242,22,o),
(270,52,o),
(287,52,cs)
);
}
);
width = 600;
}
);
note = comma;
unicode = 44;
},
{
glyphname = hyphen;
layers = (
{
layerId = m01;
shapes = (
{
closed = 1;
nodes = (
(138,310,l),
(138,272,l),
(456,272,l),
(456,310,l)
);
}
